<?xml version="1.0" encoding="UTF-8" standalone="no"?>
<!DOCTYPE svg PUBLIC "-//W3C//DTD SVG 1.1//EN"
 "http://www.w3.org/Graphics/SVG/1.1/DTD/svg11.dtd">
<!-- Generated by graphviz version 14.1.5 (20260411.2331)
 -->
<!-- Title: CandySpawner Pages: 1 -->
<svg width="175pt" height="236pt"
 viewBox="0.00 0.00 175.00 236.00" xmlns="http://www.w3.org/2000/svg" xmlns:xlink="http://www.w3.org/1999/xlink">
<g id="graph0" class="graph" transform="scale(1 1) rotate(0) translate(4 232)">
<title>CandySpawner</title>
<!-- Node1 -->
<g id="Node000001" class="node">
<title>Node1</title>
<g id="a_Node000001"><a xlink:title=" ">
<polygon fill="#999999" stroke="none" points="167.25,-140 0,-140 0,0 167.25,0 167.25,-140"/>
<text xml:space="preserve" text-anchor="start" x="50.25" y="-126.25" font-family="Helvetica,sans-Serif" font-size="10.00">CandySpawner</text>
<text xml:space="preserve" text-anchor="start" x="5.5" y="-110.25" font-family="Helvetica,sans-Serif" font-size="10.00">&#45;</text>
<text xml:space="preserve" text-anchor="start" x="14" y="-110.25" font-family="Helvetica,sans-Serif" font-size="10.00">PlayerHandManager player</text>
<text xml:space="preserve" text-anchor="start" x="14" y="-98.25" font-family="Helvetica,sans-Serif" font-size="10.00">HandManager</text>
<text xml:space="preserve" text-anchor="start" x="5.5" y="-82.25" font-family="Helvetica,sans-Serif" font-size="10.00">&#45;</text>
<text xml:space="preserve" text-anchor="start" x="14" y="-82.25" font-family="Helvetica,sans-Serif" font-size="10.00">GameObject candyPrefab</text>
<text xml:space="preserve" text-anchor="start" x="5.5" y="-66.25" font-family="Helvetica,sans-Serif" font-size="10.00">&#45;</text>
<text xml:space="preserve" text-anchor="start" x="14" y="-66.25" font-family="Helvetica,sans-Serif" font-size="10.00">ObjectPool&lt; CandyGroupInstance</text>
<text xml:space="preserve" text-anchor="start" x="14" y="-54.25" font-family="Helvetica,sans-Serif" font-size="10.00"> &gt; candyPool</text>
<text xml:space="preserve" text-anchor="start" x="4" y="-38.25" font-family="Helvetica,sans-Serif" font-size="10.00">+</text>
<text xml:space="preserve" text-anchor="start" x="14" y="-38.25" font-family="Helvetica,sans-Serif" font-size="10.00">void AddToHand()</text>
<text xml:space="preserve" text-anchor="start" x="5.5" y="-22.25" font-family="Helvetica,sans-Serif" font-size="10.00">&#45;</text>
<text xml:space="preserve" text-anchor="start" x="14" y="-22.25" font-family="Helvetica,sans-Serif" font-size="10.00">void OnValidate()</text>
<text xml:space="preserve" text-anchor="start" x="5.5" y="-6.25" font-family="Helvetica,sans-Serif" font-size="10.00">&#45;</text>
<text xml:space="preserve" text-anchor="start" x="14" y="-6.25" font-family="Helvetica,sans-Serif" font-size="10.00">void Awake()</text>
<polygon fill="#666666" stroke="#666666" points="0,-122 0,-122 167.25,-122 167.25,-122 0,-122"/>
<polygon fill="#666666" stroke="#666666" points="0,-50 0,-50 12,-50 12,-50 0,-50"/>
<polygon fill="#666666" stroke="#666666" points="12,-50 12,-50 167.25,-50 167.25,-50 12,-50"/>
<polygon fill="none" stroke="#666666" points="0,0 0,-140 167.25,-140 167.25,0 0,0"/>
</a>
</g>
</g>
<!-- Node2 -->
<g id="Node000002" class="node">
<title>Node2</title>
<g id="a_Node000002"><a xlink:href="class_mono_behaviour.html" target="_top" xlink:title=" ">
<polygon fill="white" stroke="none" points="121.38,-228 45.88,-228 45.88,-176 121.38,-176 121.38,-228"/>
<text xml:space="preserve" text-anchor="start" x="49.88" y="-214.25" font-family="Helvetica,sans-Serif" font-size="10.00">MonoBehaviour</text>
<text xml:space="preserve" text-anchor="start" x="82.12" y="-198.25" font-family="Helvetica,sans-Serif" font-size="10.00"> </text>
<text xml:space="preserve" text-anchor="start" x="82.12" y="-182.25" font-family="Helvetica,sans-Serif" font-size="10.00"> </text>
<polygon fill="#666666" stroke="#666666" points="45.88,-210 45.88,-210 121.38,-210 121.38,-210 45.88,-210"/>
<polygon fill="#666666" stroke="#666666" points="45.88,-194 45.88,-194 121.38,-194 121.38,-194 45.88,-194"/>
<polygon fill="none" stroke="#666666" points="45.88,-176 45.88,-228 121.38,-228 121.38,-176 45.88,-176"/>
</a>
</g>
</g>
<!-- Node2&#45;&gt;Node1 -->
<g id="edge1_Node000001_Node000002" class="edge">
<title>Node2&#45;&gt;Node1</title>
<g id="a_edge1_Node000001_Node000002"><a xlink:title=" ">
<path fill="none" stroke="#63b8ff" d="M83.62,-164.92C83.62,-157.04 83.62,-148.46 83.62,-139.78"/>
<polygon fill="none" stroke="#63b8ff" points="80.13,-164.73 83.63,-174.73 87.13,-164.73 80.13,-164.73"/>
</a>
</g>
</g>
</g>
</svg>
