<?xml version="1.0" encoding="UTF-8" standalone="no"?>
<!DOCTYPE svg PUBLIC "-//W3C//DTD SVG 1.1//EN"
 "http://www.w3.org/Graphics/SVG/1.1/DTD/svg11.dtd">
<!-- Generated by graphviz version 14.1.5 (20260411.2331)
 -->
<!-- Title: CandyTypeLookup Pages: 1 -->
<svg width="246pt" height="222pt"
 viewBox="0.00 0.00 246.00 222.00" xmlns="http://www.w3.org/2000/svg" xmlns:xlink="http://www.w3.org/1999/xlink">

<svg id="main" version="1.1" xmlns="http://www.w3.org/2000/svg" xmlns:xlink="http://www.w3.org/1999/xlink" xml:space="preserve">

<style type="text/css"><![CDATA[
.node, .edge {opacity: 0.7;}
.node.selected, .edge.selected {opacity: 1;}
.edge:hover path { stroke: red; }
.edge:hover polygon { stroke: red; fill: red; }
]]></style>
<script type="application/ecmascript" xlink:href="svg.min.js"/>
<svg id="graph" class="graph">
<g id="graph0" class="graph" transform="scale(1 1) rotate(0) translate(4 218)">
<title>CandyTypeLookup</title>
<!-- Node1 -->
<g id="Node000001" class="node">
<title>Node1</title>
<g id="a_Node000001"><a xlink:title="Lookup table for all candy types, and their data Possible to change per level since it&#39;s a registered...">
<polygon fill="#999999" stroke="none" points="159.12,-96 44.38,-96 44.38,0 159.12,0 159.12,-96"/>
<text xml:space="preserve" text-anchor="start" x="61.25" y="-82.25" font-family="Helvetica,sans-Serif" font-size="10.00">CandyTypeLookup</text>
<text xml:space="preserve" text-anchor="start" x="100.25" y="-66.25" font-family="Helvetica,sans-Serif" font-size="10.00"> </text>
<text xml:space="preserve" text-anchor="start" x="48.38" y="-50.25" font-family="Helvetica,sans-Serif" font-size="10.00">+</text>
<text xml:space="preserve" text-anchor="start" x="58.38" y="-50.25" font-family="Helvetica,sans-Serif" font-size="10.00">CandyTypeOption Get</text>
<text xml:space="preserve" text-anchor="start" x="58.38" y="-38.25" font-family="Helvetica,sans-Serif" font-size="10.00">(int typeIndex)</text>
<text xml:space="preserve" text-anchor="start" x="49.88" y="-22.25" font-family="Helvetica,sans-Serif" font-size="10.00">&#45;</text>
<text xml:space="preserve" text-anchor="start" x="58.38" y="-22.25" font-family="Helvetica,sans-Serif" font-size="10.00">void OnValidate()</text>
<text xml:space="preserve" text-anchor="start" x="49.88" y="-6.25" font-family="Helvetica,sans-Serif" font-size="10.00">&#45;</text>
<text xml:space="preserve" text-anchor="start" x="58.38" y="-6.25" font-family="Helvetica,sans-Serif" font-size="10.00">void Awake()</text>
<polygon fill="#666666" stroke="#666666" points="44.38,-78 44.38,-78 159.12,-78 159.12,-78 44.38,-78"/>
<polygon fill="#666666" stroke="#666666" points="44.38,-62 44.38,-62 159.12,-62 159.12,-62 44.38,-62"/>
<polygon fill="none" stroke="#666666" points="44.38,0 44.38,-96 159.12,-96 159.12,0 44.38,0"/>
</a>
</g>
</g>
<!-- Node2 -->
<g id="Node000002" class="node">
<title>Node2</title>
<g id="a_Node000002"><a xlink:href="class_mono_behaviour.html" target="_top" xlink:title=" ">
<polygon fill="white" stroke="none" points="75.5,-208 0,-208 0,-156 75.5,-156 75.5,-208"/>
<text xml:space="preserve" text-anchor="start" x="4" y="-194.25" font-family="Helvetica,sans-Serif" font-size="10.00">MonoBehaviour</text>
<text xml:space="preserve" text-anchor="start" x="36.25" y="-178.25" font-family="Helvetica,sans-Serif" font-size="10.00"> </text>
<text xml:space="preserve" text-anchor="start" x="36.25" y="-162.25" font-family="Helvetica,sans-Serif" font-size="10.00"> </text>
<polygon fill="#666666" stroke="#666666" points="0,-190 0,-190 75.5,-190 75.5,-190 0,-190"/>
<polygon fill="#666666" stroke="#666666" points="0,-174 0,-174 75.5,-174 75.5,-174 0,-174"/>
<polygon fill="none" stroke="#666666" points="0,-156 0,-208 75.5,-208 75.5,-156 0,-156"/>
</a>
</g>
</g>
<!-- Node2&#45;&gt;Node1 -->
<g id="edge1_Node000001_Node000002" class="edge">
<title>Node2&#45;&gt;Node1</title>
<g id="a_edge1_Node000001_Node000002"><a xlink:title=" ">
<path fill="none" stroke="#63b8ff" d="M54.69,-146.06C62.14,-130.69 71,-112.42 79.01,-95.89"/>
<polygon fill="none" stroke="#63b8ff" points="51.66,-144.28 50.45,-154.81 57.96,-147.34 51.66,-144.28"/>
</a>
</g>
</g>
<!-- Node3 -->
<g id="Node000003" class="node">
<title>Node3</title>
<g id="a_Node000003"><a xlink:title=" ">
<polygon fill="white" stroke="none" points="238.38,-214 93.12,-214 93.12,-150 238.38,-150 238.38,-214"/>
<text xml:space="preserve" text-anchor="start" x="97.12" y="-200.25" font-family="Helvetica,sans-Serif" font-size="10.00">List&lt; CandyTypeLookup.Candy</text>
<text xml:space="preserve" text-anchor="start" x="136.5" y="-188.25" font-family="Helvetica,sans-Serif" font-size="10.00">TypeOption &gt;</text>
<text xml:space="preserve" text-anchor="start" x="164.25" y="-172.25" font-family="Helvetica,sans-Serif" font-size="10.00"> </text>
<text xml:space="preserve" text-anchor="start" x="164.25" y="-156.25" font-family="Helvetica,sans-Serif" font-size="10.00"> </text>
<polygon fill="#666666" stroke="#666666" points="93.12,-184 93.12,-184 238.38,-184 238.38,-184 93.12,-184"/>
<polygon fill="#666666" stroke="#666666" points="93.12,-168 93.12,-168 238.38,-168 238.38,-168 93.12,-168"/>
<polygon fill="none" stroke="#666666" points="93.12,-150 93.12,-214 238.38,-214 238.38,-150 93.12,-150"/>
</a>
</g>
</g>
<!-- Node3&#45;&gt;Node1 -->
<g id="edge2_Node000001_Node000003" class="edge">
<title>Node3&#45;&gt;Node1</title>
<g id="a_edge2_Node000001_Node000003"><a xlink:title=" ">
<path fill="none" stroke="#63b8ff" d="M150.74,-150.05C144.56,-137.3 137.19,-122.1 130.07,-107.4"/>
<polygon fill="none" stroke="#63b8ff" points="130.06,-107.39 123.85,-103.74 124.83,-96.6 131.04,-100.25 130.06,-107.39"/>
</a>
</g>
<text xml:space="preserve" text-anchor="start" x="144.36" y="-119.25" font-family="Helvetica,sans-Serif" font-size="10.00" fill="grey">&#45;options</text>
</g>
</g>
</svg>
</svg>

<style type='text/css'>
<![CDATA[
[data-mouse-over-selected='false'] { opacity: 0.7; }
[data-mouse-over-selected='true']  { opacity: 1.0; }
]]>
</style>
<script type="application/ecmascript"><![CDATA[
document.addEventListener('DOMContentLoaded', (event) => {
  highlightEdges();
  highlightAdjacentNodes();
});
]]></script>
</svg>
