<?xml version="1.0" encoding="UTF-8" standalone="no"?>
<!DOCTYPE svg PUBLIC "-//W3C//DTD SVG 1.1//EN"
 "http://www.w3.org/Graphics/SVG/1.1/DTD/svg11.dtd">
<!-- Generated by graphviz version 14.1.5 (20260411.2331)
 -->
<!-- Title: Graphical Class Hierarchy Pages: 1 -->
<svg width="253pt" height="66pt"
 viewBox="0.00 0.00 253.00 66.00" xmlns="http://www.w3.org/2000/svg" xmlns:xlink="http://www.w3.org/1999/xlink">
<g id="graph0" class="graph" transform="scale(1 1) rotate(0) translate(4 62)">
<title>Graphical Class Hierarchy</title>
<!-- Node0 -->
<g id="Node000000" class="node">
<title>Node0</title>
<g id="a_Node000000"><a xlink:href="class_i_comparable.html" target="_top" xlink:title=" ">
<polygon fill="white" stroke="#666666" points="71.5,-58 0,-58 0,-38 71.5,-38 71.5,-58"/>
<text xml:space="preserve" text-anchor="middle" x="35.75" y="-44.5" font-family="Helvetica,sans-Serif" font-size="10.00">IComparable</text>
</a>
</g>
</g>
<!-- Node1 -->
<g id="Node000001" class="node">
<title>Node1</title>
<g id="a_Node000001"><a xlink:href="struct_grid_1_1_grid_manager_1_1_grid_index.html" target="_top" xlink:title="Represents a place inside the grid.">
<polygon fill="white" stroke="#666666" points="245,-39 107.5,-39 107.5,-19 245,-19 245,-39"/>
<text xml:space="preserve" text-anchor="middle" x="176.25" y="-25.5" font-family="Helvetica,sans-Serif" font-size="10.00">Grid.GridManager.GridIndex</text>
</a>
</g>
</g>
<!-- Node0&#45;&gt;Node1 -->
<g id="edge43_Node000000_Node000001" class="edge">
<title>Node0&#45;&gt;Node1</title>
<g id="a_edge43_Node000000_Node000001"><a xlink:title=" ">
<path fill="none" stroke="#63b8ff" d="M83.05,-41.65C90.78,-40.59 98.95,-39.47 107.1,-38.35"/>
<polygon fill="#63b8ff" stroke="#63b8ff" points="82.63,-38.17 73.2,-43 83.58,-45.11 82.63,-38.17"/>
</a>
</g>
</g>
<!-- Node2 -->
<g id="Node000002" class="node">
<title>Node2</title>
<g id="a_Node000002"><a xlink:href="class_i_equatable-1-g.html" target="_top" xlink:title=" ">
<polygon fill="white" stroke="#666666" points="67,-20 4.5,-20 4.5,0 67,0 67,-20"/>
<text xml:space="preserve" text-anchor="middle" x="35.75" y="-6.5" font-family="Helvetica,sans-Serif" font-size="10.00">IEquatable</text>
</a>
</g>
</g>
<!-- Node2&#45;&gt;Node1 -->
<g id="edge44_Node000002_Node000001" class="edge">
<title>Node2&#45;&gt;Node1</title>
<g id="a_edge44_Node000002_Node000001"><a xlink:title=" ">
<path fill="none" stroke="#63b8ff" d="M78.81,-15.77C87.8,-17 97.5,-18.33 107.18,-19.66"/>
<polygon fill="#63b8ff" stroke="#63b8ff" points="79.37,-12.31 68.99,-14.42 78.42,-19.25 79.37,-12.31"/>
</a>
</g>
</g>
</g>
</svg>
