<?xml version="1.0" encoding="UTF-8" standalone="no"?>
<!DOCTYPE svg PUBLIC "-//W3C//DTD SVG 1.1//EN"
 "http://www.w3.org/Graphics/SVG/1.1/DTD/svg11.dtd">
<!-- Generated by graphviz version 14.1.5 (20260411.2331)
 -->
<!-- Title: Graphical Class Hierarchy Pages: 1 -->
<svg width="539pt" height="674pt"
 viewBox="0.00 0.00 539.00 674.00" xmlns="http://www.w3.org/2000/svg" xmlns:xlink="http://www.w3.org/1999/xlink">
<g id="graph0" class="graph" transform="scale(1 1) rotate(0) translate(4 670)">
<title>Graphical Class Hierarchy</title>
<!-- Node0 -->
<g id="Node000000" class="node">
<title>Node0</title>
<g id="a_Node000000"><a xlink:href="class_mono_behaviour.html" target="_top" xlink:title=" ">
<polygon fill="white" stroke="#666666" points="83.5,-343 0,-343 0,-323 83.5,-323 83.5,-343"/>
<text xml:space="preserve" text-anchor="middle" x="41.75" y="-329.5" font-family="Helvetica,sans-Serif" font-size="10.00">MonoBehaviour</text>
</a>
</g>
</g>
<!-- Node1 -->
<g id="Node000001" class="node">
<title>Node1</title>
<g id="a_Node000001"><a xlink:href="class_billboard.html" target="_top" xlink:title="A simple component, that makes the transform follow the camera.">
<polygon fill="white" stroke="#666666" points="226.25,-666 172.75,-666 172.75,-646 226.25,-646 226.25,-666"/>
<text xml:space="preserve" text-anchor="middle" x="199.5" y="-652.5" font-family="Helvetica,sans-Serif" font-size="10.00">Billboard</text>
</a>
</g>
</g>
<!-- Node0&#45;&gt;Node1 -->
<g id="edge2_Node000000_Node000001" class="edge">
<title>Node0&#45;&gt;Node1</title>
<g id="a_edge2_Node000000_Node000001"><a xlink:title=" ">
<path fill="none" stroke="#63b8ff" d="M45.3,-354.58C53.13,-417.14 78.76,-596.72 119.5,-637 133.34,-650.69 155.22,-655.14 172.44,-656.34"/>
<polygon fill="#63b8ff" stroke="#63b8ff" points="48.81,-354.4 44.12,-344.9 41.86,-355.25 48.81,-354.4"/>
</a>
</g>
</g>
<!-- Node2 -->
<g id="Node000002" class="node">
<title>Node2</title>
<g id="a_Node000002"><a xlink:href="class_board_item.html" target="_top" xlink:title="Holds all board item events, used to let board item specific components hook into logic and represent...">
<polygon fill="white" stroke="#666666" points="230,-628 169,-628 169,-608 230,-608 230,-628"/>
<text xml:space="preserve" text-anchor="middle" x="199.5" y="-614.5" font-family="Helvetica,sans-Serif" font-size="10.00">BoardItem</text>
</a>
</g>
</g>
<!-- Node0&#45;&gt;Node2 -->
<g id="edge3_Node000000_Node000002" class="edge">
<title>Node0&#45;&gt;Node2</title>
<g id="a_edge3_Node000000_Node000002"><a xlink:title=" ">
<path fill="none" stroke="#63b8ff" d="M42.19,-354.62C42.11,-405.17 49.35,-531.93 119.5,-599 132.55,-611.48 152.3,-616.23 168.79,-617.86"/>
<polygon fill="#63b8ff" stroke="#63b8ff" points="45.68,-354.79 42.32,-344.75 38.69,-354.7 45.68,-354.79"/>
</a>
</g>
</g>
<!-- Node4 -->
<g id="Node000004" class="node">
<title>Node4</title>
<g id="a_Node000004"><a xlink:href="class_board_item_component.html" target="_top" xlink:title="A component that&#39;s able to hook into the functions of a board item.">
<polygon fill="white" stroke="#666666" points="255.12,-590 143.88,-590 143.88,-570 255.12,-570 255.12,-590"/>
<text xml:space="preserve" text-anchor="middle" x="199.5" y="-576.5" font-family="Helvetica,sans-Serif" font-size="10.00">BoardItemComponent</text>
</a>
</g>
</g>
<!-- Node0&#45;&gt;Node4 -->
<g id="edge5_Node000000_Node000004" class="edge">
<title>Node0&#45;&gt;Node4</title>
<g id="a_edge5_Node000000_Node000004"><a xlink:title=" ">
<path fill="none" stroke="#63b8ff" d="M43.43,-354.89C46.07,-400.36 58.79,-505.45 119.5,-561 126.26,-567.19 134.69,-571.46 143.49,-574.39"/>
<polygon fill="#63b8ff" stroke="#63b8ff" points="46.93,-354.84 42.98,-345.01 39.94,-355.16 46.93,-354.84"/>
</a>
</g>
</g>
<!-- Node9 -->
<g id="Node000009" class="node">
<title>Node9</title>
<g id="a_Node000009"><a xlink:href="class_candy_type_lookup.html" target="_top" xlink:title="Lookup table for all candy types, and their data Possible to change per level since it&#39;s a registered...">
<polygon fill="white" stroke="#666666" points="248,-552 151,-552 151,-532 248,-532 248,-552"/>
<text xml:space="preserve" text-anchor="middle" x="199.5" y="-538.5" font-family="Helvetica,sans-Serif" font-size="10.00">CandyTypeLookup</text>
</a>
</g>
</g>
<!-- Node0&#45;&gt;Node9 -->
<g id="edge10_Node000000_Node000009" class="edge">
<title>Node0&#45;&gt;Node9</title>
<g id="a_edge10_Node000000_Node000009"><a xlink:title=" ">
<path fill="none" stroke="#63b8ff" d="M45.06,-354.46C50.5,-394.02 67.82,-478.45 119.5,-523 128.26,-530.55 139.52,-535.22 150.77,-538.07"/>
<polygon fill="#63b8ff" stroke="#63b8ff" points="48.54,-354.09 43.85,-344.6 41.59,-354.95 48.54,-354.09"/>
</a>
</g>
</g>
<!-- Node10 -->
<g id="Node000010" class="node">
<title>Node10</title>
<g id="a_Node000010"><a xlink:href="class_device_tracker.html" target="_top" xlink:title="Device tracker, checks if player is using keyboard or gamepad.">
<polygon fill="white" stroke="#666666" points="239.38,-514 159.62,-514 159.62,-494 239.38,-494 239.38,-514"/>
<text xml:space="preserve" text-anchor="middle" x="199.5" y="-500.5" font-family="Helvetica,sans-Serif" font-size="10.00">DeviceTracker</text>
</a>
</g>
</g>
<!-- Node0&#45;&gt;Node10 -->
<g id="edge11_Node000000_Node000010" class="edge">
<title>Node0&#45;&gt;Node10</title>
<g id="a_edge11_Node000000_Node000010"><a xlink:title=" ">
<path fill="none" stroke="#63b8ff" d="M47.49,-354.54C55.96,-387.8 76.96,-451.32 119.5,-485 130.78,-493.93 145.61,-498.76 159.38,-501.34"/>
<polygon fill="#63b8ff" stroke="#63b8ff" points="50.91,-353.79 45.19,-344.87 44.1,-355.41 50.91,-353.79"/>
</a>
</g>
</g>
<!-- Node11 -->
<g id="Node000011" class="node">
<title>Node11</title>
<g id="a_Node000011"><a xlink:href="class_f_p_s_counter.html" target="_top" xlink:title="An FPS counter that Lucas stole from stack overflow, then connected to a Text component.">
<polygon fill="white" stroke="#666666" points="234.5,-476 164.5,-476 164.5,-456 234.5,-456 234.5,-476"/>
<text xml:space="preserve" text-anchor="middle" x="199.5" y="-462.5" font-family="Helvetica,sans-Serif" font-size="10.00">FPSCounter</text>
</a>
</g>
</g>
<!-- Node0&#45;&gt;Node11 -->
<g id="edge12_Node000000_Node000011" class="edge">
<title>Node0&#45;&gt;Node11</title>
<g id="a_edge12_Node000000_Node000011"><a xlink:title=" ">
<path fill="none" stroke="#63b8ff" d="M51.12,-353.95C62.58,-379.89 85.68,-423.51 119.5,-447 132.59,-456.09 149.52,-460.86 164.34,-463.35"/>
<polygon fill="#63b8ff" stroke="#63b8ff" points="54.37,-352.66 47.26,-344.8 47.92,-355.38 54.37,-352.66"/>
</a>
</g>
</g>
<!-- Node12 -->
<g id="Node000012" class="node">
<title>Node12</title>
<g id="a_Node000012"><a xlink:href="class_grid_1_1_grid_generator.html" target="_top" xlink:title="Handles the possible positions within the grid, and generates the mesh.">
<polygon fill="white" stroke="#666666" points="248.38,-438 150.62,-438 150.62,-418 248.38,-418 248.38,-438"/>
<text xml:space="preserve" text-anchor="middle" x="199.5" y="-424.5" font-family="Helvetica,sans-Serif" font-size="10.00">Grid.GridGenerator</text>
</a>
</g>
</g>
<!-- Node0&#45;&gt;Node12 -->
<g id="edge13_Node000000_Node000012" class="edge">
<title>Node0&#45;&gt;Node12</title>
<g id="a_edge13_Node000000_Node000012"><a xlink:title=" ">
<path fill="none" stroke="#63b8ff" d="M57.01,-352.18C71.01,-369.63 93.93,-394.76 119.5,-409 128.87,-414.22 139.63,-418.01 150.14,-420.77"/>
<polygon fill="#63b8ff" stroke="#63b8ff" points="60.02,-350.35 51.12,-344.59 54.49,-354.64 60.02,-350.35"/>
</a>
</g>
</g>
<!-- Node13 -->
<g id="Node000013" class="node">
<title>Node13</title>
<g id="a_Node000013"><a xlink:href="class_grid_1_1_grid_manager.html" target="_top" xlink:title="Manages everything inside of the grid.">
<polygon fill="white" stroke="#666666" points="245.75,-400 153.25,-400 153.25,-380 245.75,-380 245.75,-400"/>
<text xml:space="preserve" text-anchor="middle" x="199.5" y="-386.5" font-family="Helvetica,sans-Serif" font-size="10.00">Grid.GridManager</text>
</a>
</g>
</g>
<!-- Node0&#45;&gt;Node13 -->
<g id="edge14_Node000000_Node000013" class="edge">
<title>Node0&#45;&gt;Node13</title>
<g id="a_edge14_Node000000_Node000013"><a xlink:title=" ">
<path fill="none" stroke="#63b8ff" d="M70.97,-348.87C85.19,-356.37 102.9,-364.98 119.5,-371 130.11,-374.85 141.8,-378.15 152.87,-380.86"/>
<polygon fill="#63b8ff" stroke="#63b8ff" points="72.65,-345.8 62.18,-344.13 69.32,-351.96 72.65,-345.8"/>
</a>
</g>
</g>
<!-- Node14 -->
<g id="Node000014" class="node">
<title>Node14</title>
<g id="a_Node000014"><a xlink:href="class_grid_1_1_turn_manager.html" target="_top" xlink:title="Handles turns on the grid, moving anything on the grid down.">
<polygon fill="white" stroke="#666666" points="246.5,-362 152.5,-362 152.5,-342 246.5,-342 246.5,-362"/>
<text xml:space="preserve" text-anchor="middle" x="199.5" y="-348.5" font-family="Helvetica,sans-Serif" font-size="10.00">Grid.TurnManager</text>
</a>
</g>
</g>
<!-- Node0&#45;&gt;Node14 -->
<g id="edge15_Node000000_Node000014" class="edge">
<title>Node0&#45;&gt;Node14</title>
<g id="a_edge15_Node000000_Node000014"><a xlink:title=" ">
<path fill="none" stroke="#63b8ff" d="M94.87,-339.36C113.38,-341.62 134.07,-344.14 152.08,-346.34"/>
<polygon fill="#63b8ff" stroke="#63b8ff" points="95.52,-335.91 85.17,-338.18 94.68,-342.86 95.52,-335.91"/>
</a>
</g>
</g>
<!-- Node15 -->
<g id="Node000015" class="node">
<title>Node15</title>
<g id="a_Node000015"><a xlink:href="class_interactable.html" target="_top" xlink:title="A simple class for hooking into interactions, player pickup etc.">
<polygon fill="white" stroke="#666666" points="233,-324 166,-324 166,-304 233,-304 233,-324"/>
<text xml:space="preserve" text-anchor="middle" x="199.5" y="-310.5" font-family="Helvetica,sans-Serif" font-size="10.00">Interactable</text>
</a>
</g>
</g>
<!-- Node0&#45;&gt;Node15 -->
<g id="edge16_Node000000_Node000015" class="edge">
<title>Node0&#45;&gt;Node15</title>
<g id="a_edge16_Node000000_Node000015"><a xlink:title=" ">
<path fill="none" stroke="#63b8ff" d="M94.84,-326.65C118.25,-323.79 145.16,-320.51 165.7,-318"/>
<polygon fill="#63b8ff" stroke="#63b8ff" points="94.68,-323.14 85.17,-327.82 95.52,-330.09 94.68,-323.14"/>
</a>
</g>
</g>
<!-- Node16 -->
<g id="Node000016" class="node">
<title>Node16</title>
<g id="a_Node000016"><a xlink:href="class_player_deck.html" target="_top" xlink:title="Spawns candy within the player hand, using a pool of grouped candy.">
<polygon fill="white" stroke="#666666" points="233,-286 166,-286 166,-266 233,-266 233,-286"/>
<text xml:space="preserve" text-anchor="middle" x="199.5" y="-272.5" font-family="Helvetica,sans-Serif" font-size="10.00">PlayerDeck</text>
</a>
</g>
</g>
<!-- Node0&#45;&gt;Node16 -->
<g id="edge17_Node000000_Node000016" class="edge">
<title>Node0&#45;&gt;Node16</title>
<g id="a_edge17_Node000000_Node000016"><a xlink:title=" ">
<path fill="none" stroke="#63b8ff" d="M70.97,-317.13C85.19,-309.63 102.9,-301.02 119.5,-295 134.35,-289.61 151.33,-285.3 165.73,-282.16"/>
<polygon fill="#63b8ff" stroke="#63b8ff" points="69.32,-314.04 62.18,-321.87 72.65,-320.2 69.32,-314.04"/>
</a>
</g>
</g>
<!-- Node17 -->
<g id="Node000017" class="node">
<title>Node17</title>
<g id="a_Node000017"><a xlink:href="class_player_hand_1_1_interaction_handler.html" target="_top" xlink:title="Lets the player hand interact with interactables.">
<polygon fill="white" stroke="#666666" points="274.25,-248 124.75,-248 124.75,-228 274.25,-228 274.25,-248"/>
<text xml:space="preserve" text-anchor="middle" x="199.5" y="-234.5" font-family="Helvetica,sans-Serif" font-size="10.00">PlayerHand.InteractionHandler</text>
</a>
</g>
</g>
<!-- Node0&#45;&gt;Node17 -->
<g id="edge18_Node000000_Node000017" class="edge">
<title>Node0&#45;&gt;Node17</title>
<g id="a_edge18_Node000000_Node000017"><a xlink:title=" ">
<path fill="none" stroke="#63b8ff" d="M57.01,-313.82C71.01,-296.37 93.93,-271.24 119.5,-257 125.66,-253.57 132.43,-250.75 139.33,-248.44"/>
<polygon fill="#63b8ff" stroke="#63b8ff" points="54.49,-311.36 51.12,-321.41 60.02,-315.65 54.49,-311.36"/>
</a>
</g>
</g>
<!-- Node18 -->
<g id="Node000018" class="node">
<title>Node18</title>
<g id="a_Node000018"><a xlink:href="class_player_hand_1_1_item_rotation_handler.html" target="_top" xlink:title=" ">
<polygon fill="white" stroke="#666666" points="279.5,-210 119.5,-210 119.5,-190 279.5,-190 279.5,-210"/>
<text xml:space="preserve" text-anchor="middle" x="199.5" y="-196.5" font-family="Helvetica,sans-Serif" font-size="10.00">PlayerHand.ItemRotationHandler</text>
</a>
</g>
</g>
<!-- Node0&#45;&gt;Node18 -->
<g id="edge19_Node000000_Node000018" class="edge">
<title>Node0&#45;&gt;Node18</title>
<g id="a_edge19_Node000000_Node000018"><a xlink:title=" ">
<path fill="none" stroke="#63b8ff" d="M51.12,-312.05C62.58,-286.11 85.68,-242.49 119.5,-219 124.48,-215.54 130.02,-212.71 135.78,-210.38"/>
<polygon fill="#63b8ff" stroke="#63b8ff" points="47.92,-310.62 47.26,-321.2 54.37,-313.34 47.92,-310.62"/>
</a>
</g>
</g>
<!-- Node19 -->
<g id="Node000019" class="node">
<title>Node19</title>
<g id="a_Node000019"><a xlink:href="class_player_hand_1_1_movement_handler.html" target="_top" xlink:title="Handles player hand movement with acceleration, velocity tracking, and throw force calculation.">
<polygon fill="white" stroke="#666666" points="274.25,-172 124.75,-172 124.75,-152 274.25,-152 274.25,-172"/>
<text xml:space="preserve" text-anchor="middle" x="199.5" y="-158.5" font-family="Helvetica,sans-Serif" font-size="10.00">PlayerHand.MovementHandler</text>
</a>
</g>
</g>
<!-- Node0&#45;&gt;Node19 -->
<g id="edge20_Node000000_Node000019" class="edge">
<title>Node0&#45;&gt;Node19</title>
<g id="a_edge20_Node000000_Node000019"><a xlink:title=" ">
<path fill="none" stroke="#63b8ff" d="M47.49,-311.46C55.96,-278.2 76.96,-214.68 119.5,-181 123.81,-177.59 128.65,-174.77 133.74,-172.45"/>
<polygon fill="#63b8ff" stroke="#63b8ff" points="44.1,-310.59 45.19,-321.13 50.91,-312.21 44.1,-310.59"/>
</a>
</g>
</g>
<!-- Node20 -->
<g id="Node000020" class="node">
<title>Node20</title>
<g id="a_Node000020"><a xlink:href="class_player_hand_1_1_player_hand_manager.html" target="_top" xlink:title="Manages all playerHand handlers, and keeps track of mouse input and the hand state.">
<polygon fill="white" stroke="#666666" points="278.75,-134 120.25,-134 120.25,-114 278.75,-114 278.75,-134"/>
<text xml:space="preserve" text-anchor="middle" x="199.5" y="-120.5" font-family="Helvetica,sans-Serif" font-size="10.00">PlayerHand.PlayerHandManager</text>
</a>
</g>
</g>
<!-- Node0&#45;&gt;Node20 -->
<g id="edge21_Node000000_Node000020" class="edge">
<title>Node0&#45;&gt;Node20</title>
<g id="a_edge21_Node000000_Node000020"><a xlink:title=" ">
<path fill="none" stroke="#63b8ff" d="M45.06,-311.54C50.5,-271.98 67.82,-187.55 119.5,-143 123.45,-139.59 127.91,-136.77 132.65,-134.44"/>
<polygon fill="#63b8ff" stroke="#63b8ff" points="41.59,-311.05 43.85,-321.4 48.54,-311.91 41.59,-311.05"/>
</a>
</g>
</g>
<!-- Node21 -->
<g id="Node000021" class="node">
<title>Node21</title>
<g id="a_Node000021"><a xlink:href="class_player_hand_1_1_visual_handler.html" target="_top" xlink:title="Used for setting and keeping track of the player hand visuals.">
<polygon fill="white" stroke="#666666" points="264.88,-96 134.12,-96 134.12,-76 264.88,-76 264.88,-96"/>
<text xml:space="preserve" text-anchor="middle" x="199.5" y="-82.5" font-family="Helvetica,sans-Serif" font-size="10.00">PlayerHand.VisualHandler</text>
</a>
</g>
</g>
<!-- Node0&#45;&gt;Node21 -->
<g id="edge22_Node000000_Node000021" class="edge">
<title>Node0&#45;&gt;Node21</title>
<g id="a_edge22_Node000000_Node000021"><a xlink:title=" ">
<path fill="none" stroke="#63b8ff" d="M43.43,-311.11C46.07,-265.64 58.79,-160.55 119.5,-105 123.77,-101.1 128.69,-97.95 133.96,-95.43"/>
<polygon fill="#63b8ff" stroke="#63b8ff" points="39.94,-310.84 42.98,-320.99 46.93,-311.16 39.94,-310.84"/>
</a>
</g>
</g>
<!-- Node22 -->
<g id="Node000022" class="node">
<title>Node22</title>
<g id="a_Node000022"><a xlink:href="class_quest_system.html" target="_top" xlink:title="Keeps track of all quests within the level.">
<polygon fill="white" stroke="#666666" points="237.5,-58 161.5,-58 161.5,-38 237.5,-38 237.5,-58"/>
<text xml:space="preserve" text-anchor="middle" x="199.5" y="-44.5" font-family="Helvetica,sans-Serif" font-size="10.00">QuestSystem</text>
</a>
</g>
</g>
<!-- Node0&#45;&gt;Node22 -->
<g id="edge23_Node000000_Node000022" class="edge">
<title>Node0&#45;&gt;Node22</title>
<g id="a_edge23_Node000000_Node000022"><a xlink:title=" ">
<path fill="none" stroke="#63b8ff" d="M42.19,-311.38C42.11,-260.83 49.35,-134.07 119.5,-67 130.61,-56.37 146.59,-51.35 161.26,-49.09"/>
<polygon fill="#63b8ff" stroke="#63b8ff" points="38.69,-311.3 42.32,-321.25 45.68,-311.21 38.69,-311.3"/>
</a>
</g>
</g>
<!-- Node23 -->
<g id="Node000023" class="node">
<title>Node23</title>
<g id="a_Node000023"><a xlink:href="class_resolution_tracker.html" target="_top" xlink:title="Tracks the resolution of the current project, when it changes it calls a event.">
<polygon fill="white" stroke="#666666" points="247.25,-20 151.75,-20 151.75,0 247.25,0 247.25,-20"/>
<text xml:space="preserve" text-anchor="middle" x="199.5" y="-6.5" font-family="Helvetica,sans-Serif" font-size="10.00">ResolutionTracker</text>
</a>
</g>
</g>
<!-- Node0&#45;&gt;Node23 -->
<g id="edge24_Node000000_Node000023" class="edge">
<title>Node0&#45;&gt;Node23</title>
<g id="a_edge24_Node000000_Node000023"><a xlink:title=" ">
<path fill="none" stroke="#63b8ff" d="M45.3,-311.42C53.13,-248.86 78.76,-69.28 119.5,-29 128.03,-20.57 139.6,-15.64 151.26,-12.82"/>
<polygon fill="#63b8ff" stroke="#63b8ff" points="41.86,-310.75 44.12,-321.1 48.81,-311.6 41.86,-310.75"/>
</a>
</g>
</g>
<!-- Node3 -->
<g id="Node000003" class="node">
<title>Node3</title>
<g id="a_Node000003"><a xlink:href="class_candy_actor.html" target="_top" xlink:title="Manages the in game logic of a piece of candy.">
<polygon fill="white" stroke="#666666" points="387.38,-647 319.62,-647 319.62,-627 387.38,-627 387.38,-647"/>
<text xml:space="preserve" text-anchor="middle" x="353.5" y="-633.5" font-family="Helvetica,sans-Serif" font-size="10.00">CandyActor</text>
</a>
</g>
</g>
<!-- Node2&#45;&gt;Node3 -->
<g id="edge4_Node000002_Node000003" class="edge">
<title>Node2&#45;&gt;Node3</title>
<g id="a_edge4_Node000002_Node000003"><a xlink:title=" ">
<path fill="none" stroke="#63b8ff" d="M241.57,-623.13C265.91,-626.18 296.37,-629.98 319.21,-632.84"/>
<polygon fill="#63b8ff" stroke="#63b8ff" points="242.03,-619.66 231.67,-621.9 241.16,-626.61 242.03,-619.66"/>
</a>
</g>
</g>
<!-- Node5 -->
<g id="Node000005" class="node">
<title>Node5</title>
<g id="a_Node000005"><a xlink:href="class_grid_moveable.html" target="_top" xlink:title="Makes a board item move to a target position on the grid. TODO: If the player is not allowed to move ...">
<polygon fill="white" stroke="#666666" points="391.5,-609 315.5,-609 315.5,-589 391.5,-589 391.5,-609"/>
<text xml:space="preserve" text-anchor="middle" x="353.5" y="-595.5" font-family="Helvetica,sans-Serif" font-size="10.00">GridMoveable</text>
</a>
</g>
</g>
<!-- Node4&#45;&gt;Node5 -->
<g id="edge6_Node000004_Node000005" class="edge">
<title>Node4&#45;&gt;Node5</title>
<g id="a_edge6_Node000004_Node000005"><a xlink:title=" ">
<path fill="none" stroke="#63b8ff" d="M266.75,-588.28C283.38,-590.36 300.65,-592.52 315.29,-594.35"/>
<polygon fill="#63b8ff" stroke="#63b8ff" points="267.23,-584.81 256.88,-587.05 266.37,-591.76 267.23,-584.81"/>
</a>
</g>
</g>
<!-- Node7 -->
<g id="Node000007" class="node">
<title>Node7</title>
<g id="a_Node000007"><a xlink:href="class_grid_rotatable.html" target="_top" xlink:title="Handles board item rotation, uses a player move.">
<polygon fill="white" stroke="#666666" points="391.5,-571 315.5,-571 315.5,-551 391.5,-551 391.5,-571"/>
<text xml:space="preserve" text-anchor="middle" x="353.5" y="-557.5" font-family="Helvetica,sans-Serif" font-size="10.00">GridRotatable</text>
</a>
</g>
</g>
<!-- Node4&#45;&gt;Node7 -->
<g id="edge8_Node000004_Node000007" class="edge">
<title>Node4&#45;&gt;Node7</title>
<g id="a_edge8_Node000004_Node000007"><a xlink:title=" ">
<path fill="none" stroke="#63b8ff" d="M266.75,-571.72C283.38,-569.64 300.65,-567.48 315.29,-565.65"/>
<polygon fill="#63b8ff" stroke="#63b8ff" points="266.37,-568.24 256.88,-572.95 267.23,-575.19 266.37,-568.24"/>
</a>
</g>
</g>
<!-- Node8 -->
<g id="Node000008" class="node">
<title>Node8</title>
<g id="a_Node000008"><a xlink:href="class_hand_handler.html" target="_top" xlink:title="Lets a boardItem connect to the player hand.">
<polygon fill="white" stroke="#666666" points="390,-533 317,-533 317,-513 390,-513 390,-533"/>
<text xml:space="preserve" text-anchor="middle" x="353.5" y="-519.5" font-family="Helvetica,sans-Serif" font-size="10.00">HandHandler</text>
</a>
</g>
</g>
<!-- Node4&#45;&gt;Node8 -->
<g id="edge9_Node000004_Node000008" class="edge">
<title>Node4&#45;&gt;Node8</title>
<g id="a_edge9_Node000004_Node000008"><a xlink:title=" ">
<path fill="none" stroke="#63b8ff" d="M262.95,-566.53C268.6,-564.85 274.19,-563 279.5,-561 296.43,-554.61 299.45,-550.35 315.5,-542 320.88,-539.2 326.71,-536.19 332.12,-533.41"/>
<polygon fill="#63b8ff" stroke="#63b8ff" points="262.21,-563.1 253.52,-569.16 264.09,-569.84 262.21,-563.1"/>
</a>
</g>
</g>
<!-- Node6 -->
<g id="Node000006" class="node">
<title>Node6</title>
<g id="a_Node000006"><a xlink:href="class_move_to_grid_position.html" target="_top" xlink:title="Animates a piece of candy towards a grid position, via physics, I forgot how it works....">
<polygon fill="white" stroke="#666666" points="531.25,-609 427.5,-609 427.5,-589 531.25,-589 531.25,-609"/>
<text xml:space="preserve" text-anchor="middle" x="479.38" y="-595.5" font-family="Helvetica,sans-Serif" font-size="10.00">MoveToGridPosition</text>
</a>
</g>
</g>
<!-- Node5&#45;&gt;Node6 -->
<g id="edge7_Node000005_Node000006" class="edge">
<title>Node5&#45;&gt;Node6</title>
<g id="a_edge7_Node000005_Node000006"><a xlink:title=" ">
<path fill="none" stroke="#63b8ff" d="M402.96,-599C410.86,-599 419.07,-599 427.03,-599"/>
<polygon fill="#63b8ff" stroke="#63b8ff" points="403.18,-595.5 393.18,-599 403.18,-602.5 403.18,-595.5"/>
</a>
</g>
</g>
</g>
</svg>
