<?xml version="1.0" encoding="UTF-8" standalone="no"?>
<!DOCTYPE svg PUBLIC "-//W3C//DTD SVG 1.1//EN"
 "http://www.w3.org/Graphics/SVG/1.1/DTD/svg11.dtd">
<!-- Generated by graphviz version 14.1.5 (20260411.2331)
 -->
<!-- Title: Graphical Class Hierarchy Pages: 1 -->
<svg width="596pt" height="1130pt"
 viewBox="0.00 0.00 596.00 1130.00" xmlns="http://www.w3.org/2000/svg" xmlns:xlink="http://www.w3.org/1999/xlink">
<g id="graph0" class="graph" transform="scale(1 1) rotate(0) translate(4 1126)">
<title>Graphical Class Hierarchy</title>
<!-- Node0 -->
<g id="Node000000" class="node">
<title>Node0</title>
<g id="a_Node000000"><a xlink:href="interface_i_board_item_disablable.html" target="_top" xlink:title=" ">
<polygon fill="white" stroke="#666666" points="254.38,-894 144.62,-894 144.62,-874 254.38,-874 254.38,-894"/>
<text xml:space="preserve" text-anchor="middle" x="199.5" y="-880.5" font-family="Helvetica,sans-Serif" font-size="10.00">IBoardItemDisablable</text>
</a>
</g>
</g>
<!-- Node1 -->
<g id="Node000001" class="node">
<title>Node1</title>
<g id="a_Node000001"><a xlink:href="class_count_down_till_activation.html" target="_top" xlink:title=" ">
<polygon fill="white" stroke="#666666" points="443.62,-932 319.62,-932 319.62,-912 443.62,-912 443.62,-932"/>
<text xml:space="preserve" text-anchor="middle" x="381.62" y="-918.5" font-family="Helvetica,sans-Serif" font-size="10.00">CountDownTillActivation</text>
</a>
</g>
</g>
<!-- Node0&#45;&gt;Node1 -->
<g id="edge1_Node000000_Node000001" class="edge">
<title>Node0&#45;&gt;Node1</title>
<g id="a_edge1_Node000000_Node000001"><a xlink:title=" ">
<path fill="none" stroke="#63b8ff" d="M261.42,-896.85C284.11,-901.64 309.55,-907.01 331.09,-911.55"/>
<polygon fill="#63b8ff" stroke="#63b8ff" points="262.18,-893.44 251.68,-894.8 260.74,-900.29 262.18,-893.44"/>
</a>
</g>
</g>
<!-- Node9 -->
<g id="Node000009" class="node">
<title>Node9</title>
<g id="a_Node000009"><a xlink:href="class_explode_nearby_items_away.html" target="_top" xlink:title=" ">
<polygon fill="white" stroke="#666666" points="447.75,-894 315.5,-894 315.5,-874 447.75,-874 447.75,-894"/>
<text xml:space="preserve" text-anchor="middle" x="381.62" y="-880.5" font-family="Helvetica,sans-Serif" font-size="10.00">ExplodeNearbyItemsAway</text>
</a>
</g>
</g>
<!-- Node0&#45;&gt;Node9 -->
<g id="edge2_Node000000_Node000009" class="edge">
<title>Node0&#45;&gt;Node9</title>
<g id="a_edge2_Node000000_Node000009"><a xlink:title=" ">
<path fill="none" stroke="#63b8ff" d="M265.98,-884C282,-884 299.15,-884 315.17,-884"/>
<polygon fill="#63b8ff" stroke="#63b8ff" points="266.06,-880.5 256.06,-884 266.06,-887.5 266.06,-880.5"/>
</a>
</g>
</g>
<!-- Node2 -->
<g id="Node000002" class="node">
<title>Node2</title>
<g id="a_Node000002"><a xlink:href="interface_i_user_interface_value_getter.html" target="_top" xlink:title=" ">
<polygon fill="white" stroke="#666666" points="264.12,-932 134.88,-932 134.88,-912 264.12,-912 264.12,-932"/>
<text xml:space="preserve" text-anchor="middle" x="199.5" y="-918.5" font-family="Helvetica,sans-Serif" font-size="10.00">IUserInterfaceValueGetter</text>
</a>
</g>
</g>
<!-- Node2&#45;&gt;Node1 -->
<g id="edge4_Node000002_Node000001" class="edge">
<title>Node2&#45;&gt;Node1</title>
<g id="a_edge4_Node000002_Node000001"><a xlink:title=" ">
<path fill="none" stroke="#63b8ff" d="M275.94,-922C290.37,-922 305.31,-922 319.23,-922"/>
<polygon fill="#63b8ff" stroke="#63b8ff" points="276.03,-918.5 266.03,-922 276.03,-925.5 276.03,-918.5"/>
</a>
</g>
</g>
<!-- Node3 -->
<g id="Node000003" class="node">
<title>Node3</title>
<g id="a_Node000003"><a xlink:href="class_candy_actor.html" target="_top" xlink:title="Manages the in game logic of a piece of candy.">
<polygon fill="white" stroke="#666666" points="415.5,-970 347.75,-970 347.75,-950 415.5,-950 415.5,-970"/>
<text xml:space="preserve" text-anchor="middle" x="381.62" y="-956.5" font-family="Helvetica,sans-Serif" font-size="10.00">CandyActor</text>
</a>
</g>
</g>
<!-- Node2&#45;&gt;Node3 -->
<g id="edge3_Node000002_Node000003" class="edge">
<title>Node2&#45;&gt;Node3</title>
<g id="a_edge3_Node000002_Node000003"><a xlink:title=" ">
<path fill="none" stroke="#63b8ff" d="M261.37,-934.84C290.09,-940.9 323.25,-947.9 347.3,-952.97"/>
<polygon fill="#63b8ff" stroke="#63b8ff" points="262.18,-931.44 251.68,-932.8 260.74,-938.29 262.18,-931.44"/>
</a>
</g>
</g>
<!-- Node5 -->
<g id="Node000005" class="node">
<title>Node5</title>
<g id="a_Node000005"><a xlink:href="class_mono_behaviour.html" target="_top" xlink:title=" ">
<polygon fill="white" stroke="#666666" points="83.5,-533 0,-533 0,-513 83.5,-513 83.5,-533"/>
<text xml:space="preserve" text-anchor="middle" x="41.75" y="-519.5" font-family="Helvetica,sans-Serif" font-size="10.00">MonoBehaviour</text>
</a>
</g>
</g>
<!-- Node6 -->
<g id="Node000006" class="node">
<title>Node6</title>
<g id="a_Node000006"><a xlink:href="class_billboard.html" target="_top" xlink:title="A simple component, that makes the transform follow the camera.">
<polygon fill="white" stroke="#666666" points="226.25,-742 172.75,-742 172.75,-722 226.25,-722 226.25,-742"/>
<text xml:space="preserve" text-anchor="middle" x="199.5" y="-728.5" font-family="Helvetica,sans-Serif" font-size="10.00">Billboard</text>
</a>
</g>
</g>
<!-- Node5&#45;&gt;Node6 -->
<g id="edge5_Node000005_Node000006" class="edge">
<title>Node5&#45;&gt;Node6</title>
<g id="a_edge5_Node000005_Node000006"><a xlink:title=" ">
<path fill="none" stroke="#63b8ff" d="M45.06,-544.46C50.5,-584.02 67.82,-668.45 119.5,-713 134.03,-725.53 155.42,-730.11 172.28,-731.65"/>
<polygon fill="#63b8ff" stroke="#63b8ff" points="48.54,-544.09 43.85,-534.6 41.59,-544.95 48.54,-544.09"/>
</a>
</g>
</g>
<!-- Node4 -->
<g id="Node000004" class="node">
<title>Node4</title>
<g id="a_Node000004"><a xlink:href="class_board_item.html" target="_top" xlink:title="Holds all board item events, used to let board item specific components hook into logic and represent...">
<polygon fill="white" stroke="#666666" points="230,-970 169,-970 169,-950 230,-950 230,-970"/>
<text xml:space="preserve" text-anchor="middle" x="199.5" y="-956.5" font-family="Helvetica,sans-Serif" font-size="10.00">BoardItem</text>
</a>
</g>
</g>
<!-- Node5&#45;&gt;Node4 -->
<g id="edge6_Node000005_Node000004" class="edge">
<title>Node5&#45;&gt;Node4</title>
<g id="a_edge6_Node000005_Node000004"><a xlink:title=" ">
<path fill="none" stroke="#63b8ff" d="M43.7,-544.65C47.52,-621.94 64.35,-882.76 119.5,-941 132.01,-954.21 151.97,-958.93 168.7,-960.37"/>
<polygon fill="#63b8ff" stroke="#63b8ff" points="47.19,-544.49 43.23,-534.66 40.2,-544.82 47.19,-544.49"/>
</a>
</g>
</g>
<!-- Node7 -->
<g id="Node000007" class="node">
<title>Node7</title>
<g id="a_Node000007"><a xlink:href="class_board_item_component.html" target="_top" xlink:title="A component that&#39;s able to hook into the functions of a board item.">
<polygon fill="white" stroke="#666666" points="255.12,-780 143.88,-780 143.88,-760 255.12,-760 255.12,-780"/>
<text xml:space="preserve" text-anchor="middle" x="199.5" y="-766.5" font-family="Helvetica,sans-Serif" font-size="10.00">BoardItemComponent</text>
</a>
</g>
</g>
<!-- Node5&#45;&gt;Node7 -->
<g id="edge8_Node000005_Node000007" class="edge">
<title>Node5&#45;&gt;Node7</title>
<g id="a_edge8_Node000005_Node000007"><a xlink:title=" ">
<path fill="none" stroke="#63b8ff" d="M43.43,-544.89C46.07,-590.36 58.79,-695.45 119.5,-751 126.26,-757.19 134.69,-761.46 143.49,-764.39"/>
<polygon fill="#63b8ff" stroke="#63b8ff" points="46.93,-544.84 42.98,-535.01 39.94,-545.16 46.93,-544.84"/>
</a>
</g>
</g>
<!-- Node16 -->
<g id="Node000016" class="node">
<title>Node16</title>
<g id="a_Node000016"><a xlink:href="class_candy_type_lookup.html" target="_top" xlink:title="Lookup table for all candy types, and their data Possible to change per level since it&#39;s a registered...">
<polygon fill="white" stroke="#666666" points="248,-704 151,-704 151,-684 248,-684 248,-704"/>
<text xml:space="preserve" text-anchor="middle" x="199.5" y="-690.5" font-family="Helvetica,sans-Serif" font-size="10.00">CandyTypeLookup</text>
</a>
</g>
</g>
<!-- Node5&#45;&gt;Node16 -->
<g id="edge18_Node000005_Node000016" class="edge">
<title>Node5&#45;&gt;Node16</title>
<g id="a_edge18_Node000005_Node000016"><a xlink:title=" ">
<path fill="none" stroke="#63b8ff" d="M47.49,-544.54C55.96,-577.8 76.96,-641.32 119.5,-675 128.46,-682.09 139.66,-686.6 150.78,-689.45"/>
<polygon fill="#63b8ff" stroke="#63b8ff" points="50.91,-543.79 45.19,-534.87 44.1,-545.41 50.91,-543.79"/>
</a>
</g>
</g>
<!-- Node17 -->
<g id="Node000017" class="node">
<title>Node17</title>
<g id="a_Node000017"><a xlink:href="class_device_tracker.html" target="_top" xlink:title="Device tracker, checks if player is using keyboard or gamepad.">
<polygon fill="white" stroke="#666666" points="239.38,-666 159.62,-666 159.62,-646 239.38,-646 239.38,-666"/>
<text xml:space="preserve" text-anchor="middle" x="199.5" y="-652.5" font-family="Helvetica,sans-Serif" font-size="10.00">DeviceTracker</text>
</a>
</g>
</g>
<!-- Node5&#45;&gt;Node17 -->
<g id="edge19_Node000005_Node000017" class="edge">
<title>Node5&#45;&gt;Node17</title>
<g id="a_edge19_Node000005_Node000017"><a xlink:title=" ">
<path fill="none" stroke="#63b8ff" d="M51.12,-543.95C62.58,-569.89 85.68,-613.51 119.5,-637 131.09,-645.05 145.67,-649.71 159.15,-652.4"/>
<polygon fill="#63b8ff" stroke="#63b8ff" points="54.37,-542.66 47.26,-534.8 47.92,-545.38 54.37,-542.66"/>
</a>
</g>
</g>
<!-- Node18 -->
<g id="Node000018" class="node">
<title>Node18</title>
<g id="a_Node000018"><a xlink:href="class_f_p_s_counter.html" target="_top" xlink:title="An FPS counter that Lucas stole from stack overflow, then connected to a Text component.">
<polygon fill="white" stroke="#666666" points="234.5,-628 164.5,-628 164.5,-608 234.5,-608 234.5,-628"/>
<text xml:space="preserve" text-anchor="middle" x="199.5" y="-614.5" font-family="Helvetica,sans-Serif" font-size="10.00">FPSCounter</text>
</a>
</g>
</g>
<!-- Node5&#45;&gt;Node18 -->
<g id="edge20_Node000005_Node000018" class="edge">
<title>Node5&#45;&gt;Node18</title>
<g id="a_edge20_Node000005_Node000018"><a xlink:title=" ">
<path fill="none" stroke="#63b8ff" d="M57.01,-542.18C71.01,-559.63 93.93,-584.76 119.5,-599 133.18,-606.62 149.85,-611.2 164.34,-613.95"/>
<polygon fill="#63b8ff" stroke="#63b8ff" points="60.02,-540.35 51.12,-534.59 54.49,-544.64 60.02,-540.35"/>
</a>
</g>
</g>
<!-- Node19 -->
<g id="Node000019" class="node">
<title>Node19</title>
<g id="a_Node000019"><a xlink:href="class_grid_1_1_grid_generator.html" target="_top" xlink:title="Handles the possible positions within the grid, and generates the mesh.">
<polygon fill="white" stroke="#666666" points="248.38,-590 150.62,-590 150.62,-570 248.38,-570 248.38,-590"/>
<text xml:space="preserve" text-anchor="middle" x="199.5" y="-576.5" font-family="Helvetica,sans-Serif" font-size="10.00">Grid.GridGenerator</text>
</a>
</g>
</g>
<!-- Node5&#45;&gt;Node19 -->
<g id="edge21_Node000005_Node000019" class="edge">
<title>Node5&#45;&gt;Node19</title>
<g id="a_edge21_Node000005_Node000019"><a xlink:title=" ">
<path fill="none" stroke="#63b8ff" d="M70.97,-538.87C85.19,-546.37 102.9,-554.98 119.5,-561 129.31,-564.56 140.05,-567.65 150.37,-570.24"/>
<polygon fill="#63b8ff" stroke="#63b8ff" points="72.65,-535.8 62.18,-534.13 69.32,-541.96 72.65,-535.8"/>
</a>
</g>
</g>
<!-- Node20 -->
<g id="Node000020" class="node">
<title>Node20</title>
<g id="a_Node000020"><a xlink:href="class_grid_1_1_grid_manager.html" target="_top" xlink:title="Manages everything in the grid.">
<polygon fill="white" stroke="#666666" points="245.75,-552 153.25,-552 153.25,-532 245.75,-532 245.75,-552"/>
<text xml:space="preserve" text-anchor="middle" x="199.5" y="-538.5" font-family="Helvetica,sans-Serif" font-size="10.00">Grid.GridManager</text>
</a>
</g>
</g>
<!-- Node5&#45;&gt;Node20 -->
<g id="edge22_Node000005_Node000020" class="edge">
<title>Node5&#45;&gt;Node20</title>
<g id="a_edge22_Node000005_Node000020"><a xlink:title=" ">
<path fill="none" stroke="#63b8ff" d="M95.02,-529.38C113.78,-531.66 134.77,-534.23 152.91,-536.44"/>
<polygon fill="#63b8ff" stroke="#63b8ff" points="95.52,-525.91 85.17,-528.18 94.68,-532.86 95.52,-525.91"/>
</a>
</g>
</g>
<!-- Node21 -->
<g id="Node000021" class="node">
<title>Node21</title>
<g id="a_Node000021"><a xlink:href="class_grid_1_1_neighbor_pattern_registry.html" target="_top" xlink:title=" ">
<polygon fill="white" stroke="#666666" points="271.62,-514 127.38,-514 127.38,-494 271.62,-494 271.62,-514"/>
<text xml:space="preserve" text-anchor="middle" x="199.5" y="-500.5" font-family="Helvetica,sans-Serif" font-size="10.00">Grid.NeighborPatternRegistry</text>
</a>
</g>
</g>
<!-- Node5&#45;&gt;Node21 -->
<g id="edge23_Node000005_Node000021" class="edge">
<title>Node5&#45;&gt;Node21</title>
<g id="a_edge23_Node000005_Node000021"><a xlink:title=" ">
<path fill="none" stroke="#63b8ff" d="M94.99,-516.63C105.31,-515.37 116.31,-514.03 127.13,-512.71"/>
<polygon fill="#63b8ff" stroke="#63b8ff" points="94.68,-513.14 85.17,-517.82 95.52,-520.09 94.68,-513.14"/>
</a>
</g>
</g>
<!-- Node22 -->
<g id="Node000022" class="node">
<title>Node22</title>
<g id="a_Node000022"><a xlink:href="class_grid_1_1_turn_manager.html" target="_top" xlink:title="Handles turns on the grid, moving anything on the grid down.">
<polygon fill="white" stroke="#666666" points="246.5,-476 152.5,-476 152.5,-456 246.5,-456 246.5,-476"/>
<text xml:space="preserve" text-anchor="middle" x="199.5" y="-462.5" font-family="Helvetica,sans-Serif" font-size="10.00">Grid.TurnManager</text>
</a>
</g>
</g>
<!-- Node5&#45;&gt;Node22 -->
<g id="edge24_Node000005_Node000022" class="edge">
<title>Node5&#45;&gt;Node22</title>
<g id="a_edge24_Node000005_Node000022"><a xlink:title=" ">
<path fill="none" stroke="#63b8ff" d="M70.97,-507.13C85.19,-499.63 102.9,-491.02 119.5,-485 129.84,-481.25 141.22,-478.02 152.04,-475.34"/>
<polygon fill="#63b8ff" stroke="#63b8ff" points="69.32,-504.04 62.18,-511.87 72.65,-510.2 69.32,-504.04"/>
</a>
</g>
</g>
<!-- Node23 -->
<g id="Node000023" class="node">
<title>Node23</title>
<g id="a_Node000023"><a xlink:href="class_helper_structs_1_1_discard_pile.html" target="_top" xlink:title=" ">
<polygon fill="white" stroke="#666666" points="264.12,-438 134.88,-438 134.88,-418 264.12,-418 264.12,-438"/>
<text xml:space="preserve" text-anchor="middle" x="199.5" y="-424.5" font-family="Helvetica,sans-Serif" font-size="10.00">HelperStructs.DiscardPile</text>
</a>
</g>
</g>
<!-- Node5&#45;&gt;Node23 -->
<g id="edge25_Node000005_Node000023" class="edge">
<title>Node5&#45;&gt;Node23</title>
<g id="a_edge25_Node000005_Node000023"><a xlink:title=" ">
<path fill="none" stroke="#63b8ff" d="M57.01,-503.82C71.01,-486.37 93.93,-461.24 119.5,-447 125.66,-443.57 132.43,-440.75 139.33,-438.44"/>
<polygon fill="#63b8ff" stroke="#63b8ff" points="54.49,-501.36 51.12,-511.41 60.02,-505.65 54.49,-501.36"/>
</a>
</g>
</g>
<!-- Node24 -->
<g id="Node000024" class="node">
<title>Node24</title>
<g id="a_Node000024"><a xlink:href="class_helper_structs_1_1_move_deactivator.html" target="_top" xlink:title=" ">
<polygon fill="white" stroke="#666666" points="276.12,-400 122.88,-400 122.88,-380 276.12,-380 276.12,-400"/>
<text xml:space="preserve" text-anchor="middle" x="199.5" y="-386.5" font-family="Helvetica,sans-Serif" font-size="10.00">HelperStructs.MoveDeactivator</text>
</a>
</g>
</g>
<!-- Node5&#45;&gt;Node24 -->
<g id="edge26_Node000005_Node000024" class="edge">
<title>Node5&#45;&gt;Node24</title>
<g id="a_edge26_Node000005_Node000024"><a xlink:title=" ">
<path fill="none" stroke="#63b8ff" d="M51.12,-502.05C62.58,-476.11 85.68,-432.49 119.5,-409 124.48,-405.54 130.02,-402.71 135.78,-400.38"/>
<polygon fill="#63b8ff" stroke="#63b8ff" points="47.92,-500.62 47.26,-511.2 54.37,-503.34 47.92,-500.62"/>
</a>
</g>
</g>
<!-- Node25 -->
<g id="Node000025" class="node">
<title>Node25</title>
<g id="a_Node000025"><a xlink:href="class_interactable.html" target="_top" xlink:title="A simple class for hooking into interactions, player pickup etc.">
<polygon fill="white" stroke="#666666" points="233,-362 166,-362 166,-342 233,-342 233,-362"/>
<text xml:space="preserve" text-anchor="middle" x="199.5" y="-348.5" font-family="Helvetica,sans-Serif" font-size="10.00">Interactable</text>
</a>
</g>
</g>
<!-- Node5&#45;&gt;Node25 -->
<g id="edge27_Node000005_Node000025" class="edge">
<title>Node5&#45;&gt;Node25</title>
<g id="a_edge27_Node000005_Node000025"><a xlink:title=" ">
<path fill="none" stroke="#63b8ff" d="M47.49,-501.46C55.96,-468.2 76.96,-404.68 119.5,-371 132.55,-360.67 150.36,-355.82 165.76,-353.6"/>
<polygon fill="#63b8ff" stroke="#63b8ff" points="44.1,-500.59 45.19,-511.13 50.91,-502.21 44.1,-500.59"/>
</a>
</g>
</g>
<!-- Node26 -->
<g id="Node000026" class="node">
<title>Node26</title>
<g id="a_Node000026"><a xlink:href="class_managers_1_1_game_manager.html" target="_top" xlink:title=" ">
<polygon fill="white" stroke="#666666" points="262.25,-324 136.75,-324 136.75,-304 262.25,-304 262.25,-324"/>
<text xml:space="preserve" text-anchor="middle" x="199.5" y="-310.5" font-family="Helvetica,sans-Serif" font-size="10.00">Managers.GameManager</text>
</a>
</g>
</g>
<!-- Node5&#45;&gt;Node26 -->
<g id="edge28_Node000005_Node000026" class="edge">
<title>Node5&#45;&gt;Node26</title>
<g id="a_edge28_Node000005_Node000026"><a xlink:title=" ">
<path fill="none" stroke="#63b8ff" d="M45.06,-501.54C50.5,-461.98 67.82,-377.55 119.5,-333 124.52,-328.67 130.36,-325.29 136.55,-322.66"/>
<polygon fill="#63b8ff" stroke="#63b8ff" points="41.59,-501.05 43.85,-511.4 48.54,-501.91 41.59,-501.05"/>
</a>
</g>
</g>
<!-- Node27 -->
<g id="Node000027" class="node">
<title>Node27</title>
<g id="a_Node000027"><a xlink:href="class_managers_1_1_game_state_setter.html" target="_top" xlink:title=" ">
<polygon fill="white" stroke="#666666" points="268.25,-286 130.75,-286 130.75,-266 268.25,-266 268.25,-286"/>
<text xml:space="preserve" text-anchor="middle" x="199.5" y="-272.5" font-family="Helvetica,sans-Serif" font-size="10.00">Managers.GameStateSetter</text>
</a>
</g>
</g>
<!-- Node5&#45;&gt;Node27 -->
<g id="edge29_Node000005_Node000027" class="edge">
<title>Node5&#45;&gt;Node27</title>
<g id="a_edge29_Node000005_Node000027"><a xlink:title=" ">
<path fill="none" stroke="#63b8ff" d="M43.43,-501.11C46.07,-455.64 58.79,-350.55 119.5,-295 123.25,-291.57 127.5,-288.73 132.05,-286.38"/>
<polygon fill="#63b8ff" stroke="#63b8ff" points="39.94,-500.84 42.98,-510.99 46.93,-501.16 39.94,-500.84"/>
</a>
</g>
</g>
<!-- Node28 -->
<g id="Node000028" class="node">
<title>Node28</title>
<g id="a_Node000028"><a xlink:href="class_managers_1_1_move_manager.html" target="_top" xlink:title=" ">
<polygon fill="white" stroke="#666666" points="261.12,-248 137.88,-248 137.88,-228 261.12,-228 261.12,-248"/>
<text xml:space="preserve" text-anchor="middle" x="199.5" y="-234.5" font-family="Helvetica,sans-Serif" font-size="10.00">Managers.MoveManager</text>
</a>
</g>
</g>
<!-- Node5&#45;&gt;Node28 -->
<g id="edge30_Node000005_Node000028" class="edge">
<title>Node5&#45;&gt;Node28</title>
<g id="a_edge30_Node000005_Node000028"><a xlink:title=" ">
<path fill="none" stroke="#63b8ff" d="M42.19,-501.38C42.11,-450.83 49.35,-324.07 119.5,-257 124.7,-252.03 130.96,-248.28 137.66,-245.47"/>
<polygon fill="#63b8ff" stroke="#63b8ff" points="38.69,-501.3 42.32,-511.25 45.68,-501.21 38.69,-501.3"/>
</a>
</g>
</g>
<!-- Node29 -->
<g id="Node000029" class="node">
<title>Node29</title>
<g id="a_Node000029"><a xlink:href="class_player_deck.html" target="_top" xlink:title="Spawns candy within the player hand, using a pool of grouped candy.">
<polygon fill="white" stroke="#666666" points="233,-210 166,-210 166,-190 233,-190 233,-210"/>
<text xml:space="preserve" text-anchor="middle" x="199.5" y="-196.5" font-family="Helvetica,sans-Serif" font-size="10.00">PlayerDeck</text>
</a>
</g>
</g>
<!-- Node5&#45;&gt;Node29 -->
<g id="edge31_Node000005_Node000029" class="edge">
<title>Node5&#45;&gt;Node29</title>
<g id="a_edge31_Node000005_Node000029"><a xlink:title=" ">
<path fill="none" stroke="#63b8ff" d="M45.3,-501.42C53.13,-438.86 78.76,-259.28 119.5,-219 131.64,-207 149.95,-202.1 165.89,-200.27"/>
<polygon fill="#63b8ff" stroke="#63b8ff" points="41.86,-500.75 44.12,-511.1 48.81,-501.6 41.86,-500.75"/>
</a>
</g>
</g>
<!-- Node30 -->
<g id="Node000030" class="node">
<title>Node30</title>
<g id="a_Node000030"><a xlink:href="class_player_hand_1_1_interaction_handler.html" target="_top" xlink:title="Lets the player hand interact with interactables.">
<polygon fill="white" stroke="#666666" points="274.25,-172 124.75,-172 124.75,-152 274.25,-152 274.25,-172"/>
<text xml:space="preserve" text-anchor="middle" x="199.5" y="-158.5" font-family="Helvetica,sans-Serif" font-size="10.00">PlayerHand.InteractionHandler</text>
</a>
</g>
</g>
<!-- Node5&#45;&gt;Node30 -->
<g id="edge32_Node000005_Node000030" class="edge">
<title>Node5&#45;&gt;Node30</title>
<g id="a_edge32_Node000005_Node000030"><a xlink:title=" ">
<path fill="none" stroke="#63b8ff" d="M44.65,-501.45C51.04,-433.77 73.97,-227.23 119.5,-181 122.87,-177.58 126.73,-174.74 130.9,-172.37"/>
<polygon fill="#63b8ff" stroke="#63b8ff" points="41.18,-500.94 43.75,-511.22 48.15,-501.58 41.18,-500.94"/>
</a>
</g>
</g>
<!-- Node31 -->
<g id="Node000031" class="node">
<title>Node31</title>
<g id="a_Node000031"><a xlink:href="class_player_hand_1_1_item_rotation_handler.html" target="_top" xlink:title=" ">
<polygon fill="white" stroke="#666666" points="279.5,-134 119.5,-134 119.5,-114 279.5,-114 279.5,-134"/>
<text xml:space="preserve" text-anchor="middle" x="199.5" y="-120.5" font-family="Helvetica,sans-Serif" font-size="10.00">PlayerHand.ItemRotationHandler</text>
</a>
</g>
</g>
<!-- Node5&#45;&gt;Node31 -->
<g id="edge33_Node000005_Node000031" class="edge">
<title>Node5&#45;&gt;Node31</title>
<g id="a_edge33_Node000005_Node000031"><a xlink:title=" ">
<path fill="none" stroke="#63b8ff" d="M44.12,-501.46C49.18,-428.92 69.16,-195.23 119.5,-143 122.83,-139.55 126.67,-136.68 130.82,-134.29"/>
<polygon fill="#63b8ff" stroke="#63b8ff" points="40.65,-500.98 43.47,-511.19 47.63,-501.45 40.65,-500.98"/>
</a>
</g>
</g>
<!-- Node32 -->
<g id="Node000032" class="node">
<title>Node32</title>
<g id="a_Node000032"><a xlink:href="class_player_hand_1_1_movement_handler.html" target="_top" xlink:title="Handles player hand movement with acceleration, velocity tracking, and throw force calculation.">
<polygon fill="white" stroke="#666666" points="274.25,-96 124.75,-96 124.75,-76 274.25,-76 274.25,-96"/>
<text xml:space="preserve" text-anchor="middle" x="199.5" y="-82.5" font-family="Helvetica,sans-Serif" font-size="10.00">PlayerHand.MovementHandler</text>
</a>
</g>
</g>
<!-- Node5&#45;&gt;Node32 -->
<g id="edge34_Node000005_Node000032" class="edge">
<title>Node5&#45;&gt;Node32</title>
<g id="a_edge34_Node000005_Node000032"><a xlink:title=" ">
<path fill="none" stroke="#63b8ff" d="M43.7,-501.35C47.52,-424.06 64.35,-163.24 119.5,-105 122.7,-101.62 126.39,-98.8 130.39,-96.44"/>
<polygon fill="#63b8ff" stroke="#63b8ff" points="40.2,-501.18 43.23,-511.34 47.19,-501.51 40.2,-501.18"/>
</a>
</g>
</g>
<!-- Node33 -->
<g id="Node000033" class="node">
<title>Node33</title>
<g id="a_Node000033"><a xlink:href="class_player_hand_1_1_player_hand_manager.html" target="_top" xlink:title="Manages all playerHand handlers, and keeps track of mouse input and the hand state.">
<polygon fill="white" stroke="#666666" points="278.75,-58 120.25,-58 120.25,-38 278.75,-38 278.75,-58"/>
<text xml:space="preserve" text-anchor="middle" x="199.5" y="-44.5" font-family="Helvetica,sans-Serif" font-size="10.00">PlayerHand.PlayerHandManager</text>
</a>
</g>
</g>
<!-- Node5&#45;&gt;Node33 -->
<g id="edge35_Node000005_Node000033" class="edge">
<title>Node5&#45;&gt;Node33</title>
<g id="a_edge35_Node000005_Node000033"><a xlink:title=" ">
<path fill="none" stroke="#63b8ff" d="M43.34,-501.25C45.99,-419.41 59.52,-131.29 119.5,-67 122.68,-63.6 126.35,-60.75 130.33,-58.39"/>
<polygon fill="#63b8ff" stroke="#63b8ff" points="39.84,-501.13 43.04,-511.23 46.84,-501.34 39.84,-501.13"/>
</a>
</g>
</g>
<!-- Node34 -->
<g id="Node000034" class="node">
<title>Node34</title>
<g id="a_Node000034"><a xlink:href="class_player_hand_1_1_visual_handler.html" target="_top" xlink:title="Used for setting and keeping track of the player hand visuals.">
<polygon fill="white" stroke="#666666" points="264.88,-20 134.12,-20 134.12,0 264.88,0 264.88,-20"/>
<text xml:space="preserve" text-anchor="middle" x="199.5" y="-6.5" font-family="Helvetica,sans-Serif" font-size="10.00">PlayerHand.VisualHandler</text>
</a>
</g>
</g>
<!-- Node5&#45;&gt;Node34 -->
<g id="edge36_Node000005_Node000034" class="edge">
<title>Node5&#45;&gt;Node34</title>
<g id="a_edge36_Node000005_Node000034"><a xlink:title=" ">
<path fill="none" stroke="#63b8ff" d="M43.02,-501.4C44.56,-415.5 54.61,-99.43 119.5,-29 123.61,-24.54 128.57,-21.04 133.97,-18.31"/>
<polygon fill="#63b8ff" stroke="#63b8ff" points="39.53,-501.17 42.87,-511.23 46.53,-501.28 39.53,-501.17"/>
</a>
</g>
</g>
<!-- Node35 -->
<g id="Node000035" class="node">
<title>Node35</title>
<g id="a_Node000035"><a xlink:href="class_quest_system.html" target="_top" xlink:title="Keeps track of all quests within the level.">
<polygon fill="white" stroke="#666666" points="237.5,-1122 161.5,-1122 161.5,-1102 237.5,-1102 237.5,-1122"/>
<text xml:space="preserve" text-anchor="middle" x="199.5" y="-1108.5" font-family="Helvetica,sans-Serif" font-size="10.00">QuestSystem</text>
</a>
</g>
</g>
<!-- Node5&#45;&gt;Node35 -->
<g id="edge37_Node000005_Node000035" class="edge">
<title>Node5&#45;&gt;Node35</title>
<g id="a_edge37_Node000005_Node000035"><a xlink:title=" ">
<path fill="none" stroke="#63b8ff" d="M42.53,-544.84C42.03,-639.14 44.89,-1010.35 119.5,-1093 129.99,-1104.62 146.24,-1109.74 161.28,-1111.8"/>
<polygon fill="#63b8ff" stroke="#63b8ff" points="46.03,-544.97 42.6,-534.94 39.03,-544.92 46.03,-544.97"/>
</a>
</g>
</g>
<!-- Node36 -->
<g id="Node000036" class="node">
<title>Node36</title>
<g id="a_Node000036"><a xlink:href="class_resolution_tracker.html" target="_top" xlink:title="Tracks the resolution of the current project, when it changes it calls a event.">
<polygon fill="white" stroke="#666666" points="247.25,-1084 151.75,-1084 151.75,-1064 247.25,-1064 247.25,-1084"/>
<text xml:space="preserve" text-anchor="middle" x="199.5" y="-1070.5" font-family="Helvetica,sans-Serif" font-size="10.00">ResolutionTracker</text>
</a>
</g>
</g>
<!-- Node5&#45;&gt;Node36 -->
<g id="edge38_Node000005_Node000036" class="edge">
<title>Node5&#45;&gt;Node36</title>
<g id="a_edge38_Node000005_Node000036"><a xlink:title=" ">
<path fill="none" stroke="#63b8ff" d="M42.76,-544.51C43.25,-634.35 49.71,-978.41 119.5,-1055 127.77,-1064.07 139.54,-1069.17 151.48,-1071.95"/>
<polygon fill="#63b8ff" stroke="#63b8ff" points="46.26,-544.67 42.73,-534.68 39.26,-544.69 46.26,-544.67"/>
</a>
</g>
</g>
<!-- Node37 -->
<g id="Node000037" class="node">
<title>Node37</title>
<g id="a_Node000037"><a xlink:href="class_scoring_1_1_score_manager.html" target="_top" xlink:title="Keeps track of the current score and needed amount.">
<polygon fill="white" stroke="#666666" points="257,-1046 142,-1046 142,-1026 257,-1026 257,-1046"/>
<text xml:space="preserve" text-anchor="middle" x="199.5" y="-1032.5" font-family="Helvetica,sans-Serif" font-size="10.00">Scoring.ScoreManager</text>
</a>
</g>
</g>
<!-- Node5&#45;&gt;Node37 -->
<g id="edge39_Node000005_Node000037" class="edge">
<title>Node5&#45;&gt;Node37</title>
<g id="a_edge39_Node000005_Node000037"><a xlink:title=" ">
<path fill="none" stroke="#63b8ff" d="M43.02,-544.6C44.56,-630.5 54.61,-946.57 119.5,-1017 125.52,-1023.54 133.36,-1028.01 141.77,-1031.03"/>
<polygon fill="#63b8ff" stroke="#63b8ff" points="46.53,-544.72 42.87,-534.77 39.53,-544.83 46.53,-544.72"/>
</a>
</g>
</g>
<!-- Node38 -->
<g id="Node000038" class="node">
<title>Node38</title>
<g id="a_Node000038"><a xlink:href="class_scoring_1_1_score_visualiser.html" target="_top" xlink:title="Visualises UI elements based on the actions and values from the ScoreManager.">
<polygon fill="white" stroke="#666666" points="259.62,-1008 139.38,-1008 139.38,-988 259.62,-988 259.62,-1008"/>
<text xml:space="preserve" text-anchor="middle" x="199.5" y="-994.5" font-family="Helvetica,sans-Serif" font-size="10.00">Scoring.ScoreVisualiser</text>
</a>
</g>
</g>
<!-- Node5&#45;&gt;Node38 -->
<g id="edge40_Node000005_Node000038" class="edge">
<title>Node5&#45;&gt;Node38</title>
<g id="a_edge40_Node000005_Node000038"><a xlink:title=" ">
<path fill="none" stroke="#63b8ff" d="M43.34,-544.75C45.99,-626.59 59.52,-914.71 119.5,-979 124.89,-984.78 131.7,-988.93 139.05,-991.91"/>
<polygon fill="#63b8ff" stroke="#63b8ff" points="46.84,-544.66 43.04,-534.77 39.84,-544.87 46.84,-544.66"/>
</a>
</g>
</g>
<!-- Node39 -->
<g id="Node000039" class="node">
<title>Node39</title>
<g id="a_Node000039"><a xlink:href="class_shop_component.html" target="_top" xlink:title=" ">
<polygon fill="white" stroke="#666666" points="243.88,-856 155.12,-856 155.12,-836 243.88,-836 243.88,-856"/>
<text xml:space="preserve" text-anchor="middle" x="199.5" y="-842.5" font-family="Helvetica,sans-Serif" font-size="10.00">ShopComponent</text>
</a>
</g>
</g>
<!-- Node5&#45;&gt;Node39 -->
<g id="edge41_Node000005_Node000039" class="edge">
<title>Node5&#45;&gt;Node39</title>
<g id="a_edge41_Node000005_Node000039"><a xlink:title=" ">
<path fill="none" stroke="#63b8ff" d="M45.3,-544.58C53.13,-607.14 78.76,-786.72 119.5,-827 128.93,-836.32 142.08,-841.36 154.96,-844"/>
<polygon fill="#63b8ff" stroke="#63b8ff" points="48.81,-544.4 44.12,-534.9 41.86,-545.25 48.81,-544.4"/>
</a>
</g>
</g>
<!-- Node40 -->
<g id="Node000040" class="node">
<title>Node40</title>
<g id="a_Node000040"><a xlink:href="class_user_interface_value_to_t_m_p.html" target="_top" xlink:title=" ">
<polygon fill="white" stroke="#666666" points="264.88,-818 134.12,-818 134.12,-798 264.88,-798 264.88,-818"/>
<text xml:space="preserve" text-anchor="middle" x="199.5" y="-804.5" font-family="Helvetica,sans-Serif" font-size="10.00">UserInterfaceValueToTMP</text>
</a>
</g>
</g>
<!-- Node5&#45;&gt;Node40 -->
<g id="edge42_Node000005_Node000040" class="edge">
<title>Node5&#45;&gt;Node40</title>
<g id="a_edge42_Node000005_Node000040"><a xlink:title=" ">
<path fill="none" stroke="#63b8ff" d="M42.19,-544.62C42.11,-595.17 49.35,-721.93 119.5,-789 123.68,-793 128.55,-796.2 133.78,-798.76"/>
<polygon fill="#63b8ff" stroke="#63b8ff" points="45.68,-544.79 42.32,-534.75 38.69,-544.7 45.68,-544.79"/>
</a>
</g>
</g>
<!-- Node4&#45;&gt;Node3 -->
<g id="edge7_Node000004_Node000003" class="edge">
<title>Node4&#45;&gt;Node3</title>
<g id="a_edge7_Node000004_Node000003"><a xlink:title=" ">
<path fill="none" stroke="#63b8ff" d="M241.47,-960C273.55,-960 317.59,-960 347.47,-960"/>
<polygon fill="#63b8ff" stroke="#63b8ff" points="241.76,-956.5 231.76,-960 241.76,-963.5 241.76,-956.5"/>
</a>
</g>
</g>
<!-- Node7&#45;&gt;Node1 -->
<g id="edge10_Node000007_Node000001" class="edge">
<title>Node7&#45;&gt;Node1</title>
<g id="a_edge10_Node000007_Node000001"><a xlink:title=" ">
<path fill="none" stroke="#63b8ff" d="M266.04,-779.8C270.94,-782.26 275.52,-785.29 279.5,-789 318.36,-825.24 277.52,-865.85 315.5,-903 319.04,-906.46 323.16,-909.29 327.6,-911.62"/>
<polygon fill="#63b8ff" stroke="#63b8ff" points="267.59,-776.65 257.01,-776.08 264.92,-783.13 267.59,-776.65"/>
</a>
</g>
</g>
<!-- Node7&#45;&gt;Node9 -->
<g id="edge11_Node000007_Node000009" class="edge">
<title>Node7&#45;&gt;Node9</title>
<g id="a_edge11_Node000007_Node000009"><a xlink:title=" ">
<path fill="none" stroke="#63b8ff" d="M265.74,-780.52C270.67,-782.83 275.34,-785.62 279.5,-789 308.51,-812.57 287.06,-840.75 315.5,-865 319.53,-868.44 324.16,-871.26 329.05,-873.56"/>
<polygon fill="#63b8ff" stroke="#63b8ff" points="267.33,-777.38 256.74,-776.98 264.77,-783.89 267.33,-777.38"/>
</a>
</g>
</g>
<!-- Node8 -->
<g id="Node000008" class="node">
<title>Node8</title>
<g id="a_Node000008"><a xlink:href="class_candy_1_1_candy_multiplier.html" target="_top" xlink:title=" ">
<polygon fill="white" stroke="#666666" points="438.75,-742 324.5,-742 324.5,-722 438.75,-722 438.75,-742"/>
<text xml:space="preserve" text-anchor="middle" x="381.62" y="-728.5" font-family="Helvetica,sans-Serif" font-size="10.00">Candy.CandyMultiplier</text>
</a>
</g>
</g>
<!-- Node7&#45;&gt;Node8 -->
<g id="edge9_Node000007_Node000008" class="edge">
<title>Node7&#45;&gt;Node8</title>
<g id="a_edge9_Node000007_Node000008"><a xlink:title=" ">
<path fill="none" stroke="#63b8ff" d="M261.42,-757.15C284.11,-752.36 309.55,-746.99 331.09,-742.45"/>
<polygon fill="#63b8ff" stroke="#63b8ff" points="260.74,-753.71 251.68,-759.2 262.18,-760.56 260.74,-753.71"/>
</a>
</g>
</g>
<!-- Node10 -->
<g id="Node000010" class="node">
<title>Node10</title>
<g id="a_Node000010"><a xlink:href="class_grid_moveable.html" target="_top" xlink:title="Makes a board item move to a target position on the grid.">
<polygon fill="white" stroke="#666666" points="419.62,-704 343.62,-704 343.62,-684 419.62,-684 419.62,-704"/>
<text xml:space="preserve" text-anchor="middle" x="381.62" y="-690.5" font-family="Helvetica,sans-Serif" font-size="10.00">GridMoveable</text>
</a>
</g>
</g>
<!-- Node7&#45;&gt;Node10 -->
<g id="edge12_Node000007_Node000010" class="edge">
<title>Node7&#45;&gt;Node10</title>
<g id="a_edge12_Node000007_Node000010"><a xlink:title=" ">
<path fill="none" stroke="#63b8ff" d="M265.81,-757.54C270.57,-755.65 275.19,-753.49 279.5,-751 299.64,-739.36 295.64,-725.12 315.5,-713 323.94,-707.84 333.86,-704.03 343.37,-701.22"/>
<polygon fill="#63b8ff" stroke="#63b8ff" points="264.94,-754.13 256.64,-760.72 267.24,-760.74 264.94,-754.13"/>
</a>
</g>
</g>
<!-- Node12 -->
<g id="Node000012" class="node">
<title>Node12</title>
<g id="a_Node000012"><a xlink:href="class_grid_rotatable.html" target="_top" xlink:title="Handles board item rotation, uses a player move.">
<polygon fill="white" stroke="#666666" points="419.62,-666 343.62,-666 343.62,-646 419.62,-646 419.62,-666"/>
<text xml:space="preserve" text-anchor="middle" x="381.62" y="-652.5" font-family="Helvetica,sans-Serif" font-size="10.00">GridRotatable</text>
</a>
</g>
</g>
<!-- Node7&#45;&gt;Node12 -->
<g id="edge14_Node000007_Node000012" class="edge">
<title>Node7&#45;&gt;Node12</title>
<g id="a_edge14_Node000007_Node000012"><a xlink:title=" ">
<path fill="none" stroke="#63b8ff" d="M265.74,-759.48C270.67,-757.17 275.34,-754.38 279.5,-751 308.51,-727.43 287.06,-699.25 315.5,-675 323.3,-668.35 333.32,-664.03 343.15,-661.22"/>
<polygon fill="#63b8ff" stroke="#63b8ff" points="264.77,-756.11 256.74,-763.02 267.33,-762.62 264.77,-756.11"/>
</a>
</g>
</g>
<!-- Node13 -->
<g id="Node000013" class="node">
<title>Node13</title>
<g id="a_Node000013"><a xlink:href="class_hand_handler.html" target="_top" xlink:title="Lets a boardItem connect to the player hand.">
<polygon fill="white" stroke="#666666" points="418.12,-856 345.12,-856 345.12,-836 418.12,-836 418.12,-856"/>
<text xml:space="preserve" text-anchor="middle" x="381.62" y="-842.5" font-family="Helvetica,sans-Serif" font-size="10.00">HandHandler</text>
</a>
</g>
</g>
<!-- Node7&#45;&gt;Node13 -->
<g id="edge15_Node000007_Node000013" class="edge">
<title>Node7&#45;&gt;Node13</title>
<g id="a_edge15_Node000007_Node000013"><a xlink:title=" ">
<path fill="none" stroke="#63b8ff" d="M265.81,-782.46C270.57,-784.35 275.19,-786.51 279.5,-789 299.64,-800.64 295.64,-814.88 315.5,-827 324.35,-832.4 334.81,-836.33 344.72,-839.17"/>
<polygon fill="#63b8ff" stroke="#63b8ff" points="267.24,-779.26 256.64,-779.28 264.94,-785.87 267.24,-779.26"/>
</a>
</g>
</g>
<!-- Node14 -->
<g id="Node000014" class="node">
<title>Node14</title>
<g id="a_Node000014"><a xlink:href="class_shake_detector.html" target="_top" xlink:title=" ">
<polygon fill="white" stroke="#666666" points="422.25,-818 341,-818 341,-798 422.25,-798 422.25,-818"/>
<text xml:space="preserve" text-anchor="middle" x="381.62" y="-804.5" font-family="Helvetica,sans-Serif" font-size="10.00">ShakeDetector</text>
</a>
</g>
</g>
<!-- Node7&#45;&gt;Node14 -->
<g id="edge16_Node000007_Node000014" class="edge">
<title>Node7&#45;&gt;Node14</title>
<g id="a_edge16_Node000007_Node000014"><a xlink:title=" ">
<path fill="none" stroke="#63b8ff" d="M261.19,-782.8C287.43,-788.34 317.41,-794.66 340.77,-799.59"/>
<polygon fill="#63b8ff" stroke="#63b8ff" points="262.18,-779.44 251.68,-780.8 260.74,-786.29 262.18,-779.44"/>
</a>
</g>
</g>
<!-- Node15 -->
<g id="Node000015" class="node">
<title>Node15</title>
<g id="a_Node000015"><a xlink:href="class_temp_neighbor_tester.html" target="_top" xlink:title=" ">
<polygon fill="white" stroke="#666666" points="434.62,-780 328.62,-780 328.62,-760 434.62,-760 434.62,-780"/>
<text xml:space="preserve" text-anchor="middle" x="381.62" y="-766.5" font-family="Helvetica,sans-Serif" font-size="10.00">TempNeighborTester</text>
</a>
</g>
</g>
<!-- Node7&#45;&gt;Node15 -->
<g id="edge17_Node000007_Node000015" class="edge">
<title>Node7&#45;&gt;Node15</title>
<g id="a_edge17_Node000007_Node000015"><a xlink:title=" ">
<path fill="none" stroke="#63b8ff" d="M266.91,-770C287.19,-770 309.2,-770 328.4,-770"/>
<polygon fill="#63b8ff" stroke="#63b8ff" points="267.04,-766.5 257.04,-770 267.04,-773.5 267.04,-766.5"/>
</a>
</g>
</g>
<!-- Node11 -->
<g id="Node000011" class="node">
<title>Node11</title>
<g id="a_Node000011"><a xlink:href="class_move_to_grid_position.html" target="_top" xlink:title="Animates a piece of candy towards a grid position, via physics, I forgot how it works....">
<polygon fill="white" stroke="#666666" points="587.5,-704 483.75,-704 483.75,-684 587.5,-684 587.5,-704"/>
<text xml:space="preserve" text-anchor="middle" x="535.62" y="-690.5" font-family="Helvetica,sans-Serif" font-size="10.00">MoveToGridPosition</text>
</a>
</g>
</g>
<!-- Node10&#45;&gt;Node11 -->
<g id="edge13_Node000010_Node000011" class="edge">
<title>Node10&#45;&gt;Node11</title>
<g id="a_edge13_Node000010_Node000011"><a xlink:title=" ">
<path fill="none" stroke="#63b8ff" d="M431.01,-694C447.74,-694 466.54,-694 483.48,-694"/>
<polygon fill="#63b8ff" stroke="#63b8ff" points="431.32,-690.5 421.32,-694 431.32,-697.5 431.32,-690.5"/>
</a>
</g>
</g>
</g>
</svg>
