<?xml version="1.0" encoding="UTF-8" standalone="no"?>
<!DOCTYPE svg PUBLIC "-//W3C//DTD SVG 1.1//EN"
 "http://www.w3.org/Graphics/SVG/1.1/DTD/svg11.dtd">
<!-- Generated by graphviz version 14.1.5 (20260411.2331)
 -->
<!-- Title: PlayerHand.VisualHandler.VisualState Pages: 1 -->
<svg width="149pt" height="178pt"
 viewBox="0.00 0.00 149.00 178.00" xmlns="http://www.w3.org/2000/svg" xmlns:xlink="http://www.w3.org/1999/xlink">

<svg id="main" version="1.1" xmlns="http://www.w3.org/2000/svg" xmlns:xlink="http://www.w3.org/1999/xlink" xml:space="preserve">

<style type="text/css"><![CDATA[
.node, .edge {opacity: 0.7;}
.node.selected, .edge.selected {opacity: 1;}
.edge:hover path { stroke: red; }
.edge:hover polygon { stroke: red; fill: red; }
]]></style>
<script type="application/ecmascript" xlink:href="svg.min.js"/>
<svg id="graph" class="graph">
<g id="graph0" class="graph" transform="scale(1 1) rotate(0) translate(4 174)">
<title>PlayerHand.VisualHandler.VisualState</title>
<!-- Node1 -->
<g id="Node000001" class="node">
<title>Node1</title>
<g id="a_Node000001"><a xlink:title=" ">
<polygon fill="#999999" stroke="none" points="129.88,-64 4.12,-64 4.12,0 129.88,0 129.88,-64"/>
<text xml:space="preserve" text-anchor="start" x="8.12" y="-50.25" font-family="Helvetica,sans-Serif" font-size="10.00">PlayerHand.VisualHandler.</text>
<text xml:space="preserve" text-anchor="start" x="41.88" y="-38.25" font-family="Helvetica,sans-Serif" font-size="10.00">VisualState</text>
<text xml:space="preserve" text-anchor="start" x="65.5" y="-22.25" font-family="Helvetica,sans-Serif" font-size="10.00"> </text>
<text xml:space="preserve" text-anchor="start" x="65.5" y="-6.25" font-family="Helvetica,sans-Serif" font-size="10.00"> </text>
<polygon fill="#666666" stroke="#666666" points="4.12,-34 4.12,-34 129.88,-34 129.88,-34 4.12,-34"/>
<polygon fill="#666666" stroke="#666666" points="4.12,-18 4.12,-18 129.88,-18 129.88,-18 4.12,-18"/>
<polygon fill="none" stroke="#666666" points="4.12,0 4.12,-64 129.88,-64 129.88,0 4.12,0"/>
</a>
</g>
</g>
<!-- Node2 -->
<g id="Node000002" class="node">
<title>Node2</title>
<g id="a_Node000002"><a xlink:title=" ">
<polygon fill="white" stroke="none" points="32,-170 0,-170 0,-118 32,-118 32,-170"/>
<text xml:space="preserve" text-anchor="start" x="4" y="-156.25" font-family="Helvetica,sans-Serif" font-size="10.00">string</text>
<text xml:space="preserve" text-anchor="start" x="14.5" y="-140.25" font-family="Helvetica,sans-Serif" font-size="10.00"> </text>
<text xml:space="preserve" text-anchor="start" x="14.5" y="-124.25" font-family="Helvetica,sans-Serif" font-size="10.00"> </text>
<polygon fill="#666666" stroke="#666666" points="0,-152 0,-152 32,-152 32,-152 0,-152"/>
<polygon fill="#666666" stroke="#666666" points="0,-136 0,-136 32,-136 32,-136 0,-136"/>
<polygon fill="none" stroke="#666666" points="0,-118 0,-170 32,-170 32,-118 0,-118"/>
</a>
</g>
</g>
<!-- Node2&#45;&gt;Node1 -->
<g id="edge1_Node000001_Node000002" class="edge">
<title>Node2&#45;&gt;Node1</title>
<g id="a_edge1_Node000001_Node000002"><a xlink:title=" ">
<path fill="none" stroke="#63b8ff" d="M22.22,-118.09C25.45,-106.8 29.85,-93.45 35.25,-82 36.32,-79.73 37.48,-77.44 38.7,-75.16"/>
<polygon fill="none" stroke="#63b8ff" points="38.75,-75.08 38.29,-67.88 44.75,-64.69 45.21,-71.88 38.75,-75.08"/>
</a>
</g>
<text xml:space="preserve" text-anchor="start" x="38.25" y="-87.25" font-family="Helvetica,sans-Serif" font-size="10.00" fill="grey">+key</text>
</g>
<!-- Node3 -->
<g id="Node000003" class="node">
<title>Node3</title>
<g id="a_Node000003"><a xlink:title=" ">
<polygon fill="white" stroke="none" points="83.75,-170 50.25,-170 50.25,-118 83.75,-118 83.75,-170"/>
<text xml:space="preserve" text-anchor="start" x="54.25" y="-156.25" font-family="Helvetica,sans-Serif" font-size="10.00">Sprite</text>
<text xml:space="preserve" text-anchor="start" x="65.5" y="-140.25" font-family="Helvetica,sans-Serif" font-size="10.00"> </text>
<text xml:space="preserve" text-anchor="start" x="65.5" y="-124.25" font-family="Helvetica,sans-Serif" font-size="10.00"> </text>
<polygon fill="#666666" stroke="#666666" points="50.25,-152 50.25,-152 83.75,-152 83.75,-152 50.25,-152"/>
<polygon fill="#666666" stroke="#666666" points="50.25,-136 50.25,-136 83.75,-136 83.75,-136 50.25,-136"/>
<polygon fill="none" stroke="#666666" points="50.25,-118 50.25,-170 83.75,-170 83.75,-118 50.25,-118"/>
</a>
</g>
</g>
<!-- Node3&#45;&gt;Node1 -->
<g id="edge2_Node000001_Node000003" class="edge">
<title>Node3&#45;&gt;Node1</title>
<g id="a_edge2_Node000001_Node000003"><a xlink:title=" ">
<path fill="none" stroke="#63b8ff" d="M67,-118.04C67,-105.84 67,-90.79 67,-76.76"/>
<polygon fill="none" stroke="#63b8ff" points="67,-76.65 63,-70.65 67,-64.65 71,-70.65 67,-76.65"/>
</a>
</g>
<text xml:space="preserve" text-anchor="start" x="70" y="-87.25" font-family="Helvetica,sans-Serif" font-size="10.00" fill="grey">+visual</text>
</g>
<!-- Node4 -->
<g id="Node000004" class="node">
<title>Node4</title>
<g id="a_Node000004"><a xlink:title=" ">
<polygon fill="white" stroke="none" points="141.38,-170 114.62,-170 114.62,-118 141.38,-118 141.38,-170"/>
<text xml:space="preserve" text-anchor="start" x="118.62" y="-156.25" font-family="Helvetica,sans-Serif" font-size="10.00">float</text>
<text xml:space="preserve" text-anchor="start" x="126.5" y="-140.25" font-family="Helvetica,sans-Serif" font-size="10.00"> </text>
<text xml:space="preserve" text-anchor="start" x="126.5" y="-124.25" font-family="Helvetica,sans-Serif" font-size="10.00"> </text>
<polygon fill="#666666" stroke="#666666" points="114.62,-152 114.62,-152 141.38,-152 141.38,-152 114.62,-152"/>
<polygon fill="#666666" stroke="#666666" points="114.62,-136 114.62,-136 141.38,-136 141.38,-136 114.62,-136"/>
<polygon fill="none" stroke="#666666" points="114.62,-118 114.62,-170 141.38,-170 141.38,-118 114.62,-118"/>
</a>
</g>
</g>
<!-- Node4&#45;&gt;Node1 -->
<g id="edge3_Node000001_Node000004" class="edge">
<title>Node4&#45;&gt;Node1</title>
<g id="a_edge3_Node000001_Node000004"><a xlink:title=" ">
<path fill="none" stroke="#63b8ff" d="M121.07,-118.16C117.39,-106.76 112.31,-93.3 106,-82 104.6,-79.49 103.07,-76.98 101.46,-74.49"/>
<polygon fill="none" stroke="#63b8ff" points="101.39,-74.39 94.67,-71.77 94.5,-64.56 101.22,-67.18 101.39,-74.39"/>
</a>
</g>
<text xml:space="preserve" text-anchor="start" x="117.37" y="-87.25" font-family="Helvetica,sans-Serif" font-size="10.00" fill="grey">+z</text>
</g>
</g>
</svg>
</svg>

<style type='text/css'>
<![CDATA[
[data-mouse-over-selected='false'] { opacity: 0.7; }
[data-mouse-over-selected='true']  { opacity: 1.0; }
]]>
</style>
<script type="application/ecmascript"><![CDATA[
document.addEventListener('DOMContentLoaded', (event) => {
  highlightEdges();
  highlightAdjacentNodes();
});
]]></script>
</svg>
