<?xml version="1.0" encoding="UTF-8" standalone="no"?>
<!DOCTYPE svg PUBLIC "-//W3C//DTD SVG 1.1//EN"
 "http://www.w3.org/Graphics/SVG/1.1/DTD/svg11.dtd">
<!-- Generated by graphviz version 14.1.5 (20260411.2331)
 -->
<!-- Title: Billboard Pages: 1 -->
<svg width="150pt" height="182pt"
 viewBox="0.00 0.00 150.00 182.00" xmlns="http://www.w3.org/2000/svg" xmlns:xlink="http://www.w3.org/1999/xlink">
<g id="graph0" class="graph" transform="scale(1 1) rotate(0) translate(4 178)">
<title>Billboard</title>
<!-- Node1 -->
<g id="Node000001" class="node">
<title>Node1</title>
<g id="a_Node000001"><a xlink:title="A simple component, that makes the transform follow the camera.">
<polygon fill="#999999" stroke="none" points="121.88,-68 29.62,-68 29.62,0 121.88,0 121.88,-68"/>
<text xml:space="preserve" text-anchor="start" x="57" y="-54.25" font-family="Helvetica,sans-Serif" font-size="10.00">Billboard</text>
<text xml:space="preserve" text-anchor="start" x="74.25" y="-38.25" font-family="Helvetica,sans-Serif" font-size="10.00"> </text>
<text xml:space="preserve" text-anchor="start" x="33.62" y="-22.25" font-family="Helvetica,sans-Serif" font-size="10.00">&#45;</text>
<text xml:space="preserve" text-anchor="start" x="40.62" y="-22.25" font-family="Helvetica,sans-Serif" font-size="10.00">void Awake()</text>
<text xml:space="preserve" text-anchor="start" x="33.62" y="-6.25" font-family="Helvetica,sans-Serif" font-size="10.00">&#45;</text>
<text xml:space="preserve" text-anchor="start" x="40.62" y="-6.25" font-family="Helvetica,sans-Serif" font-size="10.00">void LateUpdate()</text>
<polygon fill="#666666" stroke="#666666" points="29.62,-50 29.62,-50 121.88,-50 121.88,-50 29.62,-50"/>
<polygon fill="#666666" stroke="#666666" points="29.62,-34 29.62,-34 121.88,-34 121.88,-34 29.62,-34"/>
<polygon fill="none" stroke="#666666" points="29.62,0 29.62,-68 121.88,-68 121.88,0 29.62,0"/>
</a>
</g>
</g>
<!-- Node2 -->
<g id="Node000002" class="node">
<title>Node2</title>
<g id="a_Node000002"><a xlink:href="$class_mono_behaviour.html" xlink:title=" ">
<polygon fill="white" stroke="none" points="75.5,-174 0,-174 0,-122 75.5,-122 75.5,-174"/>
<text xml:space="preserve" text-anchor="start" x="4" y="-160.25" font-family="Helvetica,sans-Serif" font-size="10.00">MonoBehaviour</text>
<text xml:space="preserve" text-anchor="start" x="36.25" y="-144.25" font-family="Helvetica,sans-Serif" font-size="10.00"> </text>
<text xml:space="preserve" text-anchor="start" x="36.25" y="-128.25" font-family="Helvetica,sans-Serif" font-size="10.00"> </text>
<polygon fill="#666666" stroke="#666666" points="0,-156 0,-156 75.5,-156 75.5,-156 0,-156"/>
<polygon fill="#666666" stroke="#666666" points="0,-140 0,-140 75.5,-140 75.5,-140 0,-140"/>
<polygon fill="none" stroke="#666666" points="0,-122 0,-174 75.5,-174 75.5,-122 0,-122"/>
</a>
</g>
</g>
<!-- Node2&#45;&gt;Node1 -->
<g id="edge3_Node000001_Node000002" class="edge">
<title>Node2&#45;&gt;Node1</title>
<g id="a_edge3_Node000001_Node000002"><a xlink:title=" ">
<path fill="none" stroke="#63b8ff" d="M49.81,-111.45C54.55,-97.48 59.95,-81.56 64.6,-67.87"/>
<polygon fill="none" stroke="#63b8ff" points="46.57,-110.12 46.67,-120.71 53.2,-112.37 46.57,-110.12"/>
</a>
</g>
</g>
<!-- Node3 -->
<g id="Node000003" class="node">
<title>Node3</title>
<g id="a_Node000003"><a xlink:title=" ">
<polygon fill="white" stroke="none" points="136,-174 93.5,-174 93.5,-122 136,-122 136,-174"/>
<text xml:space="preserve" text-anchor="start" x="97.5" y="-160.25" font-family="Helvetica,sans-Serif" font-size="10.00">Camera</text>
<text xml:space="preserve" text-anchor="start" x="113.25" y="-144.25" font-family="Helvetica,sans-Serif" font-size="10.00"> </text>
<text xml:space="preserve" text-anchor="start" x="113.25" y="-128.25" font-family="Helvetica,sans-Serif" font-size="10.00"> </text>
<polygon fill="#666666" stroke="#666666" points="93.5,-156 93.5,-156 136,-156 136,-156 93.5,-156"/>
<polygon fill="#666666" stroke="#666666" points="93.5,-140 93.5,-140 136,-140 136,-140 93.5,-140"/>
<polygon fill="none" stroke="#666666" points="93.5,-122 93.5,-174 136,-174 136,-122 93.5,-122"/>
</a>
</g>
</g>
<!-- Node3&#45;&gt;Node1 -->
<g id="edge4_Node000001_Node000003" class="edge">
<title>Node3&#45;&gt;Node1</title>
<g id="a_edge4_Node000001_Node000003"><a xlink:title=" ">
<path fill="none" stroke="#63b8ff" d="M106.09,-122.14C101.79,-109.78 96.45,-94.45 91.46,-80.11"/>
<polygon fill="none" stroke="#63b8ff" points="91.44,-80.05 85.69,-75.7 87.49,-68.72 93.24,-73.07 91.44,-80.05"/>
</a>
</g>
<text xml:space="preserve" text-anchor="start" x="101.74" y="-91.25" font-family="Helvetica,sans-Serif" font-size="10.00" fill="grey">&#45;camRef</text>
</g>
</g>
</svg>
