<?xml version="1.0" encoding="UTF-8" standalone="no"?>
<!DOCTYPE svg PUBLIC "-//W3C//DTD SVG 1.1//EN"
 "http://www.w3.org/Graphics/SVG/1.1/DTD/svg11.dtd">
<!-- Generated by graphviz version 14.1.5 (20260411.2331)
 -->
<!-- Title: Managers.GameStates.PlayGameState Pages: 1 -->
<svg width="162pt" height="280pt"
 viewBox="0.00 0.00 162.00 280.00" xmlns="http://www.w3.org/2000/svg" xmlns:xlink="http://www.w3.org/1999/xlink">
<g id="graph0" class="graph" transform="scale(1 1) rotate(0) translate(4 276)">
<title>Managers.GameStates.PlayGameState</title>
<!-- Node1 -->
<g id="Node000001" class="node">
<title>Node1</title>
<g id="a_Node000001"><a xlink:title=" ">
<polygon fill="#999999" stroke="none" points="153.75,-136 0,-136 0,0 153.75,0 153.75,-136"/>
<text xml:space="preserve" text-anchor="start" x="15.38" y="-122.25" font-family="Helvetica,sans-Serif" font-size="10.00">Managers.GameStates.Play</text>
<text xml:space="preserve" text-anchor="start" x="52.12" y="-110.25" font-family="Helvetica,sans-Serif" font-size="10.00">GameState</text>
<text xml:space="preserve" text-anchor="start" x="5.5" y="-94.25" font-family="Helvetica,sans-Serif" font-size="10.00">&#45;</text>
<text xml:space="preserve" text-anchor="start" x="14" y="-94.25" font-family="Helvetica,sans-Serif" font-size="10.00">PlayerHandManager player</text>
<text xml:space="preserve" text-anchor="start" x="14" y="-82.25" font-family="Helvetica,sans-Serif" font-size="10.00">HandRef</text>
<text xml:space="preserve" text-anchor="start" x="4" y="-66.25" font-family="Helvetica,sans-Serif" font-size="10.00">+</text>
<text xml:space="preserve" text-anchor="start" x="14" y="-66.25" font-family="Helvetica,sans-Serif" font-size="10.00">PlayGameState(GameManager</text>
<text xml:space="preserve" text-anchor="start" x="14" y="-54.25" font-family="Helvetica,sans-Serif" font-size="10.00"> owner)</text>
<text xml:space="preserve" text-anchor="start" x="4" y="-38.25" font-family="Helvetica,sans-Serif" font-size="10.00">+</text>
<text xml:space="preserve" text-anchor="start" x="14" y="-38.25" font-family="Helvetica,sans-Serif" font-size="10.00">override void Start()</text>
<text xml:space="preserve" text-anchor="start" x="4" y="-22.25" font-family="Helvetica,sans-Serif" font-size="10.00">+</text>
<text xml:space="preserve" text-anchor="start" x="14" y="-22.25" font-family="Helvetica,sans-Serif" font-size="10.00">override void Update()</text>
<text xml:space="preserve" text-anchor="start" x="4" y="-6.25" font-family="Helvetica,sans-Serif" font-size="10.00">+</text>
<text xml:space="preserve" text-anchor="start" x="14" y="-6.25" font-family="Helvetica,sans-Serif" font-size="10.00">override void Exit()</text>
<polygon fill="#666666" stroke="#666666" points="0,-106 0,-106 153.75,-106 153.75,-106 0,-106"/>
<polygon fill="#666666" stroke="#666666" points="0,-78 0,-78 12,-78 12,-78 0,-78"/>
<polygon fill="#666666" stroke="#666666" points="12,-78 12,-78 153.75,-78 153.75,-78 12,-78"/>
<polygon fill="none" stroke="#666666" points="0,0 0,-136 153.75,-136 153.75,0 0,0"/>
</a>
</g>
</g>
<!-- Node2 -->
<g id="Node000002" class="node">
<title>Node2</title>
<g id="a_Node000002"><a xlink:href="$class_managers_1_1_state-1-g.html" xlink:title=" ">
<polygon fill="white" stroke="none" points="127,-272 26.75,-272 26.75,-172 127,-172 127,-272"/>
<text xml:space="preserve" text-anchor="start" x="30.75" y="-258.25" font-family="Helvetica,sans-Serif" font-size="10.00">Managers.State&lt; T &gt;</text>
<text xml:space="preserve" text-anchor="start" x="35.19" y="-242.25" font-family="Helvetica,sans-Serif" font-size="10.00">+</text>
<text xml:space="preserve" text-anchor="start" x="49.62" y="-242.25" font-family="Helvetica,sans-Serif" font-size="10.00">T Owner</text>
<text xml:space="preserve" text-anchor="start" x="35.19" y="-226.25" font-family="Helvetica,sans-Serif" font-size="10.00">+</text>
<text xml:space="preserve" text-anchor="start" x="49.62" y="-226.25" font-family="Helvetica,sans-Serif" font-size="10.00">void Start()</text>
<text xml:space="preserve" text-anchor="start" x="35.19" y="-210.25" font-family="Helvetica,sans-Serif" font-size="10.00">+</text>
<text xml:space="preserve" text-anchor="start" x="49.62" y="-210.25" font-family="Helvetica,sans-Serif" font-size="10.00">void Update()</text>
<text xml:space="preserve" text-anchor="start" x="35.19" y="-194.25" font-family="Helvetica,sans-Serif" font-size="10.00">+</text>
<text xml:space="preserve" text-anchor="start" x="49.62" y="-194.25" font-family="Helvetica,sans-Serif" font-size="10.00">void Exit()</text>
<text xml:space="preserve" text-anchor="start" x="35.56" y="-178.25" font-family="Helvetica,sans-Serif" font-size="10.00">#</text>
<text xml:space="preserve" text-anchor="start" x="49.62" y="-178.25" font-family="Helvetica,sans-Serif" font-size="10.00">State(T owner)</text>
<polygon fill="#666666" stroke="#666666" points="26.75,-254 26.75,-254 127,-254 127,-254 26.75,-254"/>
<polygon fill="#666666" stroke="#666666" points="26.75,-238 26.75,-238 47.62,-238 47.62,-238 26.75,-238"/>
<polygon fill="#666666" stroke="#666666" points="47.62,-238 47.62,-238 127,-238 127,-238 47.62,-238"/>
<polygon fill="none" stroke="#666666" points="26.75,-172 26.75,-272 127,-272 127,-172 26.75,-172"/>
</a>
</g>
</g>
<!-- Node2&#45;&gt;Node1 -->
<g id="edge2_Node000001_Node000002" class="edge">
<title>Node2&#45;&gt;Node1</title>
<g id="a_edge2_Node000001_Node000002"><a xlink:title=" ">
<path fill="none" stroke="#63b8ff" d="M76.88,-160.72C76.88,-152.55 76.88,-144.12 76.88,-135.84"/>
<polygon fill="none" stroke="#63b8ff" points="73.38,-160.56 76.88,-170.56 80.38,-160.56 73.38,-160.56"/>
</a>
</g>
</g>
</g>
</svg>
